<svg xmlns="http://www.w3.org/2000/svg" aria-hidden="true" style="position:absolute;width:0;height:0;overflow:hidden"><defs>
<symbol id="icon-antena" viewBox="0 0 30 32"><path fill="#212121" d="m29.859 22.098-8.443-8.505.937-4.616c.225.09.485.144.758.146h.033a2.16 2.16 0 1 0-2.029-1.42l-.005-.015-4.96.606L8.059.161a.53.53 0 0 0-.376-.16.536.536 0 0 0-.373.155L5.798 1.66a.535.535 0 0 0 0 .754l.814.825c-1.143 2.062-1.816 4.522-1.816 7.139 0 4.106 1.656 7.824 4.336 10.525l-.001-.001a.49.49 0 0 0 .146.097 2.986 2.986 0 0 0-.052.546v6.188h-6.4a2.669 2.669 0 0 0-2.667 2.666v1.067c0 .295.239.534.534.534h24.534a.534.534 0 0 0 .533-.534v-1.067a2.67 2.67 0 0 0-2.666-2.666h-6.4v-2.742a14.784 14.784 0 0 0 10.166-1.502l-.077.039.818.823a.534.534 0 0 0 .376.16.536.536 0 0 0 .373-.155l1.512-1.504a.535.535 0 0 0 0-.754zM22.366 6.233a1.067 1.067 0 1 1 .752 1.822h-.004a1.066 1.066 0 0 1-.747-1.822h-.002zM21.11 9.737l-.598 2.946-1.175-1.183 1.774-1.763zm-.606-.902-1.92 1.909-1.486-1.493 3.406-.416zM23.09 28.8a1.6 1.6 0 0 1 1.6 1.6v.534H1.224V30.4a1.6 1.6 0 0 1 1.6-1.6h20.267zm-7.467-2.134v1.067h-5.334v-1.067h5.334zM10.29 25.6v-4.053c0-1.294 1.196-2.346 2.666-2.346s2.667 1.053 2.667 2.346V25.6H10.29zm6.4-1.696v-2.357c0-1.882-1.675-3.413-3.733-3.413h-.058c-1.353 0-2.54.707-3.213 1.771l-.009.016a13.817 13.817 0 0 1-3.812-9.55c0-2.314.567-4.496 1.569-6.414l-.036.077L26 22.743c-1.823.947-3.979 1.502-6.266 1.502-1.079 0-2.128-.124-3.136-.357l.093.018zm11.289-.684L6.922 2.039l.754-.752 7.935 7.98c.004 0 .006.007.01.01l13.115 13.191-.757.752z" style="fill:var(--color1, #212121)"/><path fill="#2196f3" d="M12.961 20.267h-.007a1.6 1.6 0 0 0-.003 3.2h.007a1.6 1.6 0 0 0 .002-3.2zm.373 1.978a.534.534 0 1 1-.378-.912.533.533 0 0 1 .374.911h.005z" style="fill:var(--color2, #2196f3)"/></symbol>
<symbol id="icon-astronaut" viewBox="0 0 32 32"><path fill="#2196f3" d="M31.974 4.524a.535.535 0 0 0-.427-.362h-.003l-1.911-.278-.855-1.731c-.179-.365-.777-.365-.956 0l-.855 1.731-1.911.278a.534.534 0 0 0-.296.91l1.383 1.348-.326 1.903a.532.532 0 0 0 .774.562l1.709-.899 1.709.899a.534.534 0 0 0 .773-.565v.003l-.326-1.903 1.383-1.348a.535.535 0 0 0 .134-.55l.001.004zm-2.463 1.327a.53.53 0 0 0-.153.472l.191 1.114-1-.526a.525.525 0 0 0-.501.001l.003-.001-1 .526.191-1.114a.53.53 0 0 0-.152-.472l-.811-.79 1.119-.162a.532.532 0 0 0 .402-.292l.5-1.013.5 1.013a.532.532 0 0 0 .402.292l1.119.162-.809.79zm-3.377 14.671h-1.067v1.067h1.067v-1.067zm0 2.134h-1.067v1.066h1.067v-1.066zm1.066-1.067h-1.067v1.067H27.2v-1.067zm-2.133 0H24v1.067h1.067v-1.067zm-2.667 4.8h-1.067v1.067H22.4v-1.067zm0 2.134h-1.067v1.067H22.4v-1.067zm1.067-1.067H22.4v1.067h1.067v-1.067zm-2.133 0h-1.067v1.067h1.067v-1.067zM16 24.256h-1.066v1.067H16v-1.067zm0 2.133h-1.066v1.067H16v-1.067zm1.067-1.067H16v1.067h1.067v-1.067zm-2.133 0h-1.067v1.067h1.067v-1.067zm-9.067-19.2H4.801v1.066h1.066V6.122zm0 2.134H4.801v1.066h1.066V8.256zm1.066-1.067H5.866v1.067h1.066V7.189zm-2.133 0H3.733v1.067H4.8V7.189z" style="fill:var(--color2, #2196f3)"/><path fill="#212121" d="M24.715 14.16a1.774 1.774 0 0 0-1.179-.703l-.009-.001a1.769 1.769 0 0 0-1.344.355l.004-.003-1.253.96-1.898 1.417-1.358-.541c2.421-1.086 4.113-3.508 4.113-6.32 0-3.823-3.122-6.934-6.961-6.934S7.869 5.5 7.869 9.324c0 1.386.415 2.674 1.12 3.759l-2.768-.024c-.009 0-.016.005-.023.005a.511.511 0 0 0-.159.033l.004-.001c-.013.005-.026.007-.038.013-.006.003-.013.003-.019.006l-3.233 1.596-.001.001-1.893.91a.5.5 0 0 0-.065.036l.001-.001a1.782 1.782 0 0 0-.594 2.306l-.005-.01c.22.424.592.742 1.043.885l.013.003a1.772 1.772 0 0 0 1.388-.133l-.009.005 1.388-.738 2.264-1.169 1.357-.008-5.442 5.415-.001.001-1.339 1.333a1.643 1.643 0 0 0-.491 1.173v.005a1.668 1.668 0 0 0 1.667 1.664h.002a1.67 1.67 0 0 0 1.18-.485l1.314-1.309 1.741-1.3.901.897L4.07 27.28a1.643 1.643 0 0 0-.491 1.173v.004a1.662 1.662 0 0 0 1.666 1.664h.003a1.67 1.67 0 0 0 1.18-.485l4.488-4.472c.007-.006.016-.009.022-.016l5.166-5.658 3.471.494a.474.474 0 0 0 .262-.032c.017-.006.032-.015.049-.023.019-.01.039-.015.058-.027l3.213-2.133c.012-.008.018-.021.029-.03.013-.01.029-.014.041-.026l1.271-1.191c.348-.326.564-.787.564-1.3 0-.4-.132-.769-.355-1.066l.003.005zM2.13 17.77a.706.706 0 0 1-.564.05l.005.001a.717.717 0 0 1-.215-1.258l.002-.001 1.314-.632.316.924.133.389-.992.527zm3.497-1.828-1.548.8-.255-.746-.184-.537 2.027-1.001-.04 1.484zm15.1-6.62c0 .918-.219 1.785-.599 2.56l-4.181-1.899a1.865 1.865 0 0 0-.782-1.384l-.006-.004 1.464-4.861c2.377.757 4.104 2.975 4.104 5.588zm-11.789 0c0-3.235 2.644-5.867 5.894-5.867.253 0 .5.022.745.053l-1.432 4.753c-.019 0-.037-.006-.057-.006h-.001a1.872 1.872 0 0 0-1.872 1.867 1.873 1.873 0 0 0 1.872 1.867h.001c.695 0 1.295-.383 1.618-.944l3.863 1.755a5.891 5.891 0 0 1-4.737 2.39c-3.25 0-5.894-2.632-5.894-5.867zm5.957.8c0 .441-.362.8-.806.8h-.001a.804.804 0 0 1-.804-.8c0-.441.361-.8.806-.8s.806.359.806.8zM2.464 25.146a.606.606 0 0 1-.855.001.591.591 0 0 1 0-.844l.962-.959.852.848-.959.954zm3.214 3.734a.606.606 0 0 1-.855.001.591.591 0 0 1 0-.844l.963-.959.852.848-.96.955zm3.482-3.469-.001.001-1.765 1.76-.852-.848 1.765-1.757a.527.527 0 0 0 .09-.136c.007-.014.02-.026.026-.04.016-.041.019-.085.026-.128.003-.025.014-.048.014-.073 0-.035-.013-.07-.02-.105-.006-.032-.006-.064-.019-.096a.536.536 0 0 0-.092-.138c-.01-.012-.014-.026-.025-.038h-.001l-.001-.002-1.607-1.6c-.017-.017-.039-.024-.058-.038a.491.491 0 0 0-.084-.056l-.003-.001a.527.527 0 0 0-.09-.031l-.003-.001a.502.502 0 0 0-.101-.02h-.025a.603.603 0 0 0-.075.005h.003c-.036.005-.069.009-.104.021s-.064.027-.094.045c-.02.011-.043.015-.061.029l-1.774 1.324-.901-.897 2.399-2.386 4.36 4.289-.928.919zm6.819-7.017c-.016-.002-.03.004-.046.003l-.027-.001a.562.562 0 0 0-.092.008h.003a.484.484 0 0 0-.187.07l.002-.001a.492.492 0 0 0-.083.061c-.013.011-.028.016-.04.029l-4.698 5.146-4.328-4.256 2.833-2.818a.535.535 0 0 0-.378-.911h-.002l-2.219.013.028-1.607 3.104.027a6.928 6.928 0 0 0 4.978 2.101h.003c.438 0 .864-.046 1.28-.122.04.032.08.064.129.085l2.41.96.152.758.178.886-3.003-.427zm4.041.178-.313-1.558 1.446-1.08.946 1.257-2.08 1.381zm3.753-2.831-.837.785-.931-1.236.831-.637a.735.735 0 0 1 .543-.143.718.718 0 0 1 .621.71.71.71 0 0 1-.226.521z" style="fill:var(--color1, #212121)"/><path fill="#212121" d="m13.602 18.544-2.143-2.134a.53.53 0 0 0-.752 0l-2.143 2.133a.535.535 0 0 0 0 .756l2.142 2.134a.53.53 0 0 0 .752 0l2.143-2.134a.532.532 0 0 0 0-.756zm-2.519 1.759-1.387-1.381 1.386-1.381 1.387 1.381-1.387 1.381zm6.081-15.232-.258 1.036c.071.018 1.738.452 1.738 2.149h1.067c0-2.017-1.666-2.965-2.547-3.184zm2.547 4.251h-1.067v1.066h1.067V9.322z" style="fill:var(--color1, #212121)"/></symbol>
<symbol id="icon-clock" viewBox="0 0 32 32"><path fill="#212121" d="M31.296 15.301C31.295 6.849 24.441-.002 15.988 0S.685 6.855.687 15.308c.002 6.788 4.422 12.543 10.541 14.545l.108.031a.667.667 0 0 0 .529-.065.636.636 0 0 0 .283-.357l3.865-12.25a1.913 1.913 0 1 0-.852-3.63l.011-.005-5.106-5.107a.638.638 0 0 0-.902.902l5.103 5.109a1.847 1.847 0 0 0-.191.826c0 .602.283 1.137.723 1.48l.004.003-3.682 11.673C3.843 25.782.117 17.709 2.797 10.431S13.551-.573 20.829 2.108c7.278 2.681 11.004 10.754 8.323 18.032-1.345 3.581-4.003 6.406-7.374 7.938l-.088.036-.398-1.874a.639.639 0 0 0-1.05-.343l.001-.001-3.837 3.426a.637.637 0 0 0 .227 1.083l.005.001 4.899 1.563a.637.637 0 0 0 .818-.744l.001.004-.391-1.839c5.528-2.374 9.329-7.772 9.329-14.057v-.034.002zm-15.304-.637a.638.638 0 0 1 0 1.276.638.638 0 0 1 0-1.276zm2.1 14.864 2.184-1.948.603 2.84-2.787-.892z" style="fill:var(--color1, #212121)"/><path fill="#2196f3" d="M15.354 3.185V4.46a.638.638 0 0 0 1.276 0V3.185a.638.638 0 1 0-1.276 0zM3.876 14.664a.638.638 0 0 0 0 1.276h1.275a.638.638 0 0 0 0-1.276H3.876zm24.232 1.275a.638.638 0 0 0 0-1.276h-1.275a.638.638 0 0 0 0 1.276h1.275z" style="fill:var(--color2, #2196f3)"/></symbol>
<symbol id="icon-diagram" viewBox="0 0 32 32"><path fill="#2196f3" d="M14.926 14.965h1.066v4.798h-1.066v-4.798zm4.264 2.132h1.066v2.665H19.19v-2.665zm-8.529 1.599h1.066v1.066h-1.066v-1.066zm-3.198-.533h1.066v1.599H7.463v-1.599z" style="fill:var(--color2, #2196f3)"/><path fill="#212121" d="M1.599 28.291h25.586a1.6 1.6 0 0 0 1.599-1.599V24.56a1.6 1.6 0 0 0-1.599-1.599h-.533V9.667l3.028-2.868a1.608 1.608 0 1 0-.742-.752l-.004-.01-2.281 2.162v-1.23a1.6 1.6 0 0 0-1.599-1.599H3.731a1.6 1.6 0 0 0-1.599 1.599v15.992h-.533A1.6 1.6 0 0 0 0 24.56v2.132a1.6 1.6 0 0 0 1.599 1.599zM30.384 4.837a.533.533 0 0 1 0 1.066.533.533 0 0 1 0-1.066zM3.198 6.969c0-.294.239-.533.533-.533h21.323c.294 0 .533.239.533.533v2.239l-1.066 1.013V8.036a.534.534 0 0 0-.534-.534H4.798a.534.534 0 0 0-.534.533v13.327c0 .294.239.533.534.533h19.189a.534.534 0 0 0 .534-.533v-9.675l1.066-1.01V22.96H3.198V6.969zm4.798 6.93h-.005a1.6 1.6 0 1 0 1.112 2.748l1.853.93a.535.535 0 0 0 .636-.122l3.939-4.432 3.872 2.902a.534.534 0 0 0 .686-.039l3.365-3.188v8.131H5.331V8.568h18.123v2.661l-3.771 3.572-3.904-2.927a.534.534 0 0 0-.718.071v.001l-3.993 4.493-1.493-.746c.011-.064.017-.128.02-.193a1.6 1.6 0 0 0-1.599-1.599zm.533 1.599a.533.533 0 0 1-1.066 0 .533.533 0 0 1 1.066 0zm3.198 8.528h5.33v.533a.533.533 0 0 1-.533.533h-4.265a.533.533 0 0 1-.533-.533v-.533zm-10.66.534c0-.294.238-.533.533-.533h9.062v.533a1.6 1.6 0 0 0 1.599 1.599h4.265a1.6 1.6 0 0 0 1.599-1.599v-.533h9.062c.294 0 .533.239.533.533v2.132a.533.533 0 0 1-.533.533H1.601a.533.533 0 0 1-.533-.533V24.56z" style="fill:var(--color1, #212121)"/></symbol>
<symbol id="icon-envelope" viewBox="0 0 43 32"><path  d="M38.667 0H4C1.795 0 0 1.795 0 4v24c0 2.205 1.795 4 4 4h34.667c2.205 0 4-1.795 4-4V4c0-2.205-1.795-4-4-4zm0 2.667c.181 0 .355.037.512.104L21.334 18.238 3.489 2.771c.151-.065.327-.104.512-.104h34.667zm0 26.666H4A1.333 1.333 0 0 1 2.667 28V5.587l17.792 15.421c.233.203.539.327.875.327s.642-.124.876-.328l-.002.001L40 5.587V28c0 .736-.597 1.333-1.333 1.333z" /></symbol>
<symbol id="icon-facebook" viewBox="0 0 32 32"><path  d="M21.328 5.312h2.923V.224A36.478 36.478 0 0 0 20.144 0h-.157.008c-4.213 0-7.099 2.65-7.099 7.52V12H8.25v5.688h4.646V32h5.699V17.69h4.459l.709-5.688h-5.17V8.08c0-1.643.443-2.768 2.734-2.768z" /></symbol>
<symbol id="icon-instagram" viewBox="0 0 32 32"><path d="M31.968 9.408c-.074-1.701-.349-2.869-.742-3.882a7.839 7.839 0 0 0-1.85-2.837l-.001-.001A7.906 7.906 0 0 0 26.597.861l-.054-.018C25.524.449 24.362.176 22.661.101 20.949.019 20.405 0 16.059 0c-4.344 0-4.888.019-6.595.094-1.699.074-2.869.349-3.88.742a7.847 7.847 0 0 0-2.839 1.85l-.001.001A7.9 7.9 0 0 0 .919 5.465l-.018.054C.506 6.538.232 7.7.157 9.401c-.082 1.712-.101 2.256-.101 6.602 0 4.344.019 4.888.094 6.595.075 1.701.35 2.869.744 3.882a7.915 7.915 0 0 0 1.849 2.837l.001.001c.8.813 1.77 1.443 2.832 1.843 1.019.395 2.182.67 3.882.744 1.707.075 2.251.094 6.595.094 4.346 0 4.89-.019 6.595-.094 1.701-.074 2.869-.349 3.882-.742a8.237 8.237 0 0 0 4.664-4.628l.019-.055c.394-1.019.669-2.182.744-3.882.075-1.707.093-2.251.093-6.595s-.006-4.888-.08-6.595zm-2.88 13.066c-.07 1.563-.333 2.406-.55 2.97a5.341 5.341 0 0 1-3.004 3.024l-.036.012c-.56.219-1.411.482-2.968.55-1.688.075-2.194.094-6.464.094-4.269 0-4.782-.019-6.464-.094-1.563-.069-2.406-.331-2.97-.55a4.953 4.953 0 0 1-1.836-1.192l-.001-.001a4.978 4.978 0 0 1-1.184-1.803L3.6 25.45c-.218-.563-.48-1.413-.549-2.97-.075-1.688-.094-2.195-.094-6.464 0-4.27.019-4.784.094-6.464.069-1.563.331-2.406.549-2.97a4.897 4.897 0 0 1 1.198-1.837l.002-.002a4.972 4.972 0 0 1 1.806-1.182l.034-.011c.56-.219 1.411-.48 2.968-.55 1.688-.074 2.195-.093 6.464-.093 4.275 0 4.782.019 6.464.093 1.563.069 2.406.331 2.97.55a4.91 4.91 0 0 1 1.837 1.194c.531.52.938 1.144 1.195 1.84.218.56.48 1.411.549 2.968.075 1.688.094 2.194.094 6.464 0 4.269-.019 4.768-.094 6.458z" /><path d="M16.059 7.782a8.223 8.223 0 0 0-8.219 8.221 8.223 8.223 0 0 0 16.442.008v-.009a8.223 8.223 0 0 0-8.221-8.221zm0 13.552a5.333 5.333 0 0 1 .001-10.666h.001a5.334 5.334 0 1 1 0 10.668zM26.525 7.458a1.92 1.92 0 0 1-3.84 0 1.92 1.92 0 0 1 3.84 0z" /></symbol>
<symbol id="icon-linkedin" viewBox="0 0 32 32"><path d="M31.992 32H32V20.262c0-5.741-1.235-10.163-7.947-10.163-3.227 0-5.392 1.77-6.277 3.45h-.093v-2.914h-6.365v21.363h6.627V21.42c0-2.786.528-5.48 3.978-5.48 3.398 0 3.45 3.179 3.45 5.658V32h6.619zM.528 10.635h6.635V32H.528V10.635zM3.843 0A3.843 3.843 0 0 0 0 3.843c0 2.12 1.722 3.878 3.843 3.878 2.12 0 3.842-1.757 3.842-3.878S5.965.002 3.844 0z" /></symbol>
<symbol id="icon-logo-two" viewBox="0 0 57 32"><path d="M26.727 3.165h-.073a7.542 7.542 0 0 0-.336-.012h-.243c-.212 0-.428.005-.642.016l-.024-.001-.025.001h.001c-2.059.12-3.971.635-5.699 1.47l.09-.039-.23.111V16.52l.54-.183a20.64 20.64 0 0 1 1.5-.445 17.815 17.815 0 0 1 4.305-.573h.012v1.551c-.193.001-.38.006-.568.016h-.045c-1.212.068-2.348.25-3.442.537l.12-.027c-1.503.382-2.82.91-4.044 1.586l.087-.044V3.793a15.49 15.49 0 0 1 4.042-1.665l.11-.024a15.544 15.544 0 0 1 3.909-.505h.231c.273.007.539.019.788.038.658.046 1.31.15 1.949.311v1.527a11.487 11.487 0 0 0-1.849-.282l-.039-.002-.039-.003c-.132-.011-.263-.022-.386-.022zm2.688 1.561c.339.026.69.038 1.044.038a16.84 16.84 0 0 0 4.231-.554l-.117.026a16.9 16.9 0 0 0 4.043-1.587l-.087.044v14.875a15.559 15.559 0 0 1-4.042 1.665l-.11.024c-1.173.314-2.52.498-3.91.503h-.1c-1.02 0-2.01-.128-2.955-.368l.083.018V4.438c.229.053.466.102.706.142.394.067.81.115 1.214.145zm7.57.116-.54.181c-.496.167-.997.316-1.5.449-1.344.36-2.888.569-4.48.575h-.004c-.352 0-.676-.01-.989-.03l-.43-.028v12.148l.37.032c.342.03.696.045 1.052.045a14.371 14.371 0 0 0 3.631-.48l-.1.023a14.671 14.671 0 0 0 2.848-1.031l-.088.039.23-.111V4.842zM19.06 24.113a.794.794 0 0 0-.572-.243l-.03.001h.001-.012a.888.888 0 0 0-.34.067l.006-.002a.785.785 0 0 0-.442.444l-.002.005a.874.874 0 0 0-.062.335v2.023a.957.957 0 0 0 .079.415.808.808 0 0 0 .203.271.714.714 0 0 0 .277.144c.099.027.201.042.302.042a.854.854 0 0 0 .838-.851v-.226h-.53v.192c0 .06-.011.118-.032.171l.001-.003a.315.315 0 0 1-.077.114.367.367 0 0 1-.221.077.265.265 0 0 1-.247-.108l-.001-.001a.478.478 0 0 1-.071-.251v-.021.001-1.887a.643.643 0 0 1 .065-.302.27.27 0 0 1 .227-.124l.033.002h-.001.01c.092 0 .174.045.226.114l.001.001a.425.425 0 0 1 .088.26v.012-.001.175h.524v-.215a.958.958 0 0 0-.067-.352l.002.006a.838.838 0 0 0-.177-.285zm3.142-.022a.92.92 0 0 0-.917-.166.838.838 0 0 0-.483.443l-.002.005a.94.94 0 0 0-.077.392v1.94a.932.932 0 0 0 .077.397.77.77 0 0 0 .205.271.837.837 0 0 0 .279.171.914.914 0 0 0 .919-.172l-.001.001a.831.831 0 0 0 .199-.271.934.934 0 0 0 .077-.397v-1.958a.952.952 0 0 0-.08-.381l.002.006a.876.876 0 0 0-.199-.283zm-.247 2.615.001.03a.349.349 0 0 1-.106.251.388.388 0 0 1-.499 0h.001a.344.344 0 0 1-.106-.25c0-.011 0-.022.002-.032v.001-1.941l-.001-.03c0-.098.041-.187.106-.25a.388.388 0 0 1 .499 0h-.001a.344.344 0 0 1 .106.25l-.001.032v-.001 1.941zm4.374.867v-3.675h-.508l-.668 1.945h-.009l-.674-1.945h-.503v3.674h.525v-2.235h.01l.514 1.58h.262l.518-1.58h.01v2.235h.525zm2.982-3.416a.727.727 0 0 0-.297-.201 1.153 1.153 0 0 0-.361-.057h-.8v3.675h.524v-1.435h.269a.968.968 0 0 0 .473-.1.779.779 0 0 0 .286-.278l.002-.003a.893.893 0 0 0 .12-.32 2.56 2.56 0 0 0 .028-.385v-.035.002a2.107 2.107 0 0 0-.051-.525.789.789 0 0 0-.193-.338zm-.27 1.12a.45.45 0 0 1-.05.194l.001-.003a.3.3 0 0 1-.133.128l-.002.001a.525.525 0 0 1-.22.047l-.028-.001h.001-.239v-1.249h.27l.025-.001c.077 0 .149.017.214.048l-.003-.001a.299.299 0 0 1 .122.134l.001.002a.537.537 0 0 1 .046.205v.244c0 .085.005.174 0 .252h-.005zm2.75-1.378h-.429l-.81 3.675h.524l.154-.789h.714l.154.789h.523l-.829-3.675zm-.483 2.384.258-1.332h.01l.256 1.332h-.523zm3.865-.171h-.01l-.79-2.213h-.503v3.675h.523v-2.21h.011l.8 2.209h.493v-3.674h-.523v2.213zm3.199-2.213-.421 1.461h-.011l-.421-1.461h-.554l.719 2.122v1.553h.524v-1.553l.719-2.121h-.555zM17.6 28.611h.252v.708h.171v-.708h.251v-.145H17.6v.146zm2.121-.146-.331.853h.182l.07-.194h.34l.073.194h.187l-.339-.853h-.182zm-.027.516.116-.316.116.316h-.232zm2.124.023h.197v.11a.326.326 0 0 1-.203.072H21.8a.218.218 0 0 1-.169-.081.352.352 0 0 1-.063-.203l.001-.02v.001c0-.19.082-.285.245-.285l.018-.001a.18.18 0 0 1 .174.136v.001l.169-.033c-.036-.166-.156-.251-.362-.251h-.011a.43.43 0 0 0-.287.11.415.415 0 0 0-.123.329v-.001.02c0 .115.041.22.11.301l-.001-.001a.411.411 0 0 0 .297.126l.027-.001h-.001.014a.51.51 0 0 0 .348-.137v-.336h-.37v.144zm2.141-.539h-.173v.853h.597v-.145h-.425v-.708zm1.811 0h-.173v.853h.173v-.853zm1.769.57-.349-.57h-.167v.853h.16v-.557l.343.557h.172v-.853h-.158v.57zm1.601-.093h.425v-.145h-.425v-.187h.457v-.146h-.63v.853h.647v-.145h-.475v-.231zm3.88-.14h-.336v-.336h-.171v.853h.171v-.373h.336v.373h.172v-.853h-.172v.337zm1.609.14h.427v-.145h-.427v-.187h.459v-.146h-.629v.853h.646v-.145h-.475v-.231zm2.183.001c.149-.023.224-.102.224-.237l.001-.024a.205.205 0 0 0-.085-.166h-.001a.478.478 0 0 0-.216-.051l-.035.001h.002-.362v.853h.172v-.357h.048c.034 0 .066.007.094.02l-.001-.001a.181.181 0 0 1 .061.062l.186.271h.205l-.104-.166a.598.598 0 0 0-.187-.203l-.002-.001zm-.173-.118h-.126v-.214h.135l.036-.001c.049 0 .097.008.141.023l-.003-.001c.023.021.037.05.037.083a.114.114 0 0 1-.045.09.464.464 0 0 1-.142.021l-.033-.001h.002zm1.82.117h.425v-.145h-.425v-.187h.459v-.146h-.631v.853h.647v-.145h-.475v-.231z" /></symbol>
<symbol id="icon-logo-three" viewBox="0 0 57 32"><path d="M19.417 26.187a.07.07 0 0 1 .046.018l.116.111a.964.964 0 0 1-.327.211 1.254 1.254 0 0 1-.434.076h-.032.002a1.213 1.213 0 0 1-.436-.071.958.958 0 0 1-.33-.2l.001.001a.908.908 0 0 1-.21-.302l-.002-.006a1.016 1.016 0 0 1-.075-.385v-.012.001-.02c0-.272.118-.516.305-.684l.001-.001a1.06 1.06 0 0 1 .349-.201c.143-.048.296-.072.45-.07h.028c.139 0 .273.024.398.067l-.009-.003c.115.044.221.104.313.179l-.098.118a.12.12 0 0 1-.024.021.064.064 0 0 1-.034.009h-.006a.102.102 0 0 1-.043-.012L19.314 25l-.073-.041a.823.823 0 0 0-.225-.07l-.005-.001a1 1 0 0 0-.161-.013h-.013.001-.011a.963.963 0 0 0-.319.055l.007-.002a.734.734 0 0 0-.254.15l.001-.001a.67.67 0 0 0-.164.237.774.774 0 0 0-.059.302v.011-.001.013c0 .11.022.215.061.311l-.002-.005a.707.707 0 0 0 .162.236.662.662 0 0 0 .242.147.886.886 0 0 0 .299.051c.059.001.119-.003.178-.01a.696.696 0 0 0 .385-.164l-.001.001a.088.088 0 0 1 .055-.02zm3.358-.558v.012a.958.958 0 0 1-.081.387l.002-.006a.864.864 0 0 1-.218.304l-.001.001a1.01 1.01 0 0 1-.337.198l-.007.002a1.409 1.409 0 0 1-.894-.003l.01.003a1.016 1.016 0 0 1-.342-.202l.001.001a.893.893 0 0 1-.219-.303l-.002-.006a1.024 1.024 0 0 1 .003-.793l-.003.007a.925.925 0 0 1 .221-.309c.097-.085.213-.15.341-.194a1.383 1.383 0 0 1 .894.003l-.01-.003c.129.045.246.114.343.201a.903.903 0 0 1 .298.701zm-.305 0v-.017a.812.812 0 0 0-.058-.305l.002.006a.656.656 0 0 0-.396-.384l-.005-.001a1.027 1.027 0 0 0-.65.002l.007-.002a.682.682 0 0 0-.246.15.626.626 0 0 0-.156.232l-.001.004a.91.91 0 0 0 .003.638l-.002-.006a.652.652 0 0 0 .399.383l.005.001c.207.068.435.068.643 0a.685.685 0 0 0 .245-.148.662.662 0 0 0 .156-.236.817.817 0 0 0 .055-.316zm2.597.331.031.07c.011-.025.021-.048.033-.07a.937.937 0 0 1 .039-.072l-.002.003.743-1.174c.015-.02.028-.033.043-.037s.033-.007.051-.007h.23v1.909h-.26v-1.463l-.001-.033.001-.035v.002l-.748 1.19a.111.111 0 0 1-.043.043h-.001a.13.13 0 0 1-.063.016H25.075a.134.134 0 0 1-.063-.016h.001a.111.111 0 0 1-.043-.043v-.001l-.77-1.198v1.532h-.251v-1.905h.229c.018 0 .036.002.052.007h-.001a.087.087 0 0 1 .041.037l.759 1.175c.014.02.026.042.037.066l.001.003zm2.796-.095v.715h-.29v-1.906h.649c.123-.002.244.012.362.042a.724.724 0 0 1 .256.119.499.499 0 0 1 .144.184l.001.003a.577.577 0 0 1 .05.244v.012a.53.53 0 0 1-.209.422l-.001.001a.757.757 0 0 1-.258.126 1.208 1.208 0 0 1-.327.044h-.024l-.351-.005zm0-.205h.352a.82.82 0 0 0 .226-.029.488.488 0 0 0 .164-.083l-.001.001a.365.365 0 0 0 .133-.282v-.005l.001-.021a.33.33 0 0 0-.03-.137l.001.002a.371.371 0 0 0-.101-.13l-.001-.001a.621.621 0 0 0-.345-.104l-.048.002h.002-.352v.786zm3.909.922h-.233a.111.111 0 0 1-.06-.018.116.116 0 0 1-.038-.044v-.001l-.197-.461h-.994l-.205.461a.11.11 0 0 1-.099.062h-.233l.873-1.909h.302l.884 1.909zm-1.44-.708h.82l-.346-.777a1.33 1.33 0 0 1-.066-.179l-.034.1a.652.652 0 0 1-.032.081l-.343.775zm2.697-1.191a.12.12 0 0 1 .043.034l1.273 1.439v-1.482h.26v1.909h-.148a.135.135 0 0 1-.057-.012h.001a.165.165 0 0 1-.047-.035l-1.27-1.438.001.033-.001.034v-.002 1.419h-.26v-1.909h.154a.15.15 0 0 1 .052.009zm3.719 1.14v.758h-.291v-.757l-.804-1.15h.266c.021 0 .04.006.056.016a.175.175 0 0 1 .039.043l.503.742a1.118 1.118 0 0 1 .089.17l.037-.082a.63.63 0 0 1 .05-.087l.496-.747a.202.202 0 0 1 .037-.04.095.095 0 0 1 .057-.019h.269l-.805 1.155zM24.923 21.47c.126.014.254.025.384.035 1.962-.763 3.622-2.011 4.772-3.588s1.739-3.415 1.694-5.282l-2.162-1.878c.439 1.988.234 4.043-.594 5.935s-2.245 3.547-4.094 4.779z" /><path d="m24.151 21.382.058.011c1.975-1.228 3.481-2.942 4.323-4.922s.981-4.133.4-6.181l-3.08-2.676c1.245 2.199 1.747 4.661 1.445 7.099-.301 2.437-1.392 4.75-3.147 6.669zm10.445-6.541c-.523 2.052-1.794 3.902-3.623 5.276-.5.38-1.064.737-1.658 1.043l-.065.03c1.49-.38 2.859-1.053 4.003-1.966s2.03-2.042 2.592-3.3l-1.249-1.084z" /><path d="m34.106 14.539-1.778-1.545c-.034 1.762-.611 3.483-1.669 4.986s-2.562 2.732-4.352 3.559h.009c.399 0 .797-.021 1.194-.062 1.673-.594 3.151-1.538 4.302-2.748s1.94-2.65 2.295-4.189zm-9.697-8.054L22.287 4.64c-1.897.637-3.527 1.756-4.68 3.212s-1.772 3.179-1.778 4.946c.007 1.952.763 3.846 2.149 5.383 1.385 1.536 3.321 2.628 5.501 3.101 1.946-2.06 3.085-4.605 3.252-7.266s-.647-5.299-2.323-7.531zm14.599 7.769c-.007-2.316-1.07-4.535-2.955-6.173s-4.439-2.561-7.105-2.567h-.021a11.28 11.28 0 0 0-3.66.606l.079-.024 12.989 11.286a7.537 7.537 0 0 0 .672-3.128z" /></symbol>
<symbol id="icon-logo-four" viewBox="0 0 57 32"><path d="M12.878 11.255h-.002c-1.279 0-2.316.921-2.316 2.058v.002c0 1.137 1.037 2.058 2.316 2.058h.002c1.279 0 2.316-.922 2.316-2.058v-.001c0-1.137-1.037-2.059-2.316-2.059zm17.093-.658c-.004-1.579-.711-3.092-1.967-4.209s-2.958-1.745-4.734-1.749c-1.777.003-3.481.631-4.737 1.748s-1.964 2.63-1.968 4.209v8.706s13.405-1.327 13.406-8.704v-.002zM5.867 22.16c.003 1.099.496 2.151 1.37 2.928s2.058 1.214 3.294 1.218c1.236-.003 2.42-.441 3.294-1.218s1.366-1.829 1.37-2.927v-6.058s-9.327.924-9.327 6.057zm4.663 1.085c-.242 0-.477-.063-.678-.183a1.136 1.136 0 0 1-.447-.48l-.003-.007a.951.951 0 0 1-.068-.634l-.001.007c.047-.211.163-.404.334-.556s.388-.255.625-.297a1.363 1.363 0 0 1 .715.064l-.009-.003c.223.082.414.221.548.4s.206.388.206.603a.963.963 0 0 1-.092.417 1.095 1.095 0 0 1-.263.352l-.001.001a1.323 1.323 0 0 1-.864.319h-.001v-.004zm9.426-.598h-.9v.93h-.469v-2.276h1.482v.38h-1.013v.588h.9v.378zm2.253-.156c0 .224-.039.42-.118.589a.893.893 0 0 1-.83.529h-.018.001a.943.943 0 0 1-.505-.136.917.917 0 0 1-.341-.382l-.002-.006a1.319 1.319 0 0 1-.123-.561v-.021.001-.112c0-.224.04-.421.12-.591a.895.895 0 0 1 .342-.392c.148-.092.316-.138.506-.138s.357.046.505.138a.888.888 0 0 1 .342.392c.081.17.122.366.122.589v.101zm-.475-.103c0-.238-.043-.42-.128-.544a.417.417 0 0 0-.348-.186h-.019.001-.018a.419.419 0 0 0-.346.183l-.001.001c-.085.122-.129.301-.13.538v.111c0 .232.043.412.128.54s.208.192.369.192h.018a.413.413 0 0 0 .343-.183l.001-.001c.084-.124.127-.304.128-.541v-.111zm1.995.592v-.013a.24.24 0 0 0-.093-.189h-.001a1.185 1.185 0 0 0-.338-.15c-.15-.047-.278-.1-.399-.163l.014.006c-.259-.14-.388-.328-.388-.564 0-.123.034-.233.103-.328a.691.691 0 0 1 .299-.227 1.13 1.13 0 0 1 .437-.081c.163 0 .307.029.435.089a.677.677 0 0 1 .295.249.646.646 0 0 1 .107.365h-.469c0-.104-.032-.185-.098-.242a.4.4 0 0 0-.276-.087.426.426 0 0 0-.267.074.228.228 0 0 0-.096.185v.006c0 .074.037.136.111.186.075.05.185.097.33.14.267.08.461.18.583.299s.183.267.183.444c0 .197-.075.352-.224.464s-.349.167-.601.167c-.175 0-.334-.032-.478-.096a.77.77 0 0 1-.328-.261l-.002-.002a.672.672 0 0 1-.112-.373v-.015.001h.47c0 .251.15.377.45.377a.442.442 0 0 0 .261-.067.223.223 0 0 0 .093-.182v-.009zm2.502-1.298h-.697v1.895h-.469v-1.895h-.686v-.38h1.853v.38zm1.637.909h-.9v.61h1.056v.377h-1.525v-2.276h1.522v.38h-1.053v.542h.9v.367zm1.274.153h-.373v.833H28.3v-2.276h.845c.269 0 .476.06.622.18s.219.289.219.508a.705.705 0 0 1-.101.389.69.69 0 0 1-.3.245l-.005.002.492.93v.021h-.503l-.427-.832zm-.373-.38h.379a.387.387 0 0 0 .273-.089.323.323 0 0 0 .097-.231v-.018.001c0-.108-.03-.192-.092-.253s-.154-.092-.28-.092h-.377v.683zm2.84.411v.802h-.469v-2.276h.887c.171 0 .321.031.45.094.13.062.23.151.3.267a.746.746 0 0 1 .105.392.657.657 0 0 1-.229.528c-.153.128-.363.193-.633.193h-.411zm0-.379h.419c.124 0 .219-.029.283-.087a.317.317 0 0 0 .099-.25v-.017a.372.372 0 0 0-.099-.254.37.37 0 0 0-.272-.106h-.43v.715zm2.965.195h-.9v.61h1.056v.377h-1.525v-2.276h1.522v.38h-1.053v.542h.9v.367zm2.176-.909h-.697v1.895h-.469v-1.895h-.687v-.38h1.853v.38zm1.637.909h-.899v.61h1.056v.377h-1.525v-2.276h1.522v.38h-1.053v.542h.9v.367zm1.274.153h-.373v.833h-.469v-2.276h.846c.269 0 .476.06.622.18s.219.289.219.508a.705.705 0 0 1-.101.389.687.687 0 0 1-.301.245l-.005.002.492.93v.021h-.503l-.427-.832zm-.374-.38h.378c.117 0 .209-.029.273-.089a.324.324 0 0 0 .097-.232v-.018.001a.338.338 0 0 0-.092-.253c-.06-.061-.154-.092-.279-.092h-.377v.683zm2.755.616v-.013a.237.237 0 0 0-.094-.189h-.001a1.185 1.185 0 0 0-.338-.15c-.15-.047-.278-.1-.399-.163l.014.006c-.259-.14-.388-.328-.388-.564 0-.123.035-.233.103-.328a.691.691 0 0 1 .299-.227 1.13 1.13 0 0 1 .437-.081c.163 0 .307.029.435.089a.677.677 0 0 1 .295.249.646.646 0 0 1 .107.365h-.469c0-.104-.032-.185-.098-.242a.4.4 0 0 0-.276-.087.426.426 0 0 0-.267.074.229.229 0 0 0-.096.186v.005c0 .074.037.136.111.186s.185.097.33.14c.267.08.461.18.583.299s.183.267.183.444c0 .197-.075.352-.224.464s-.349.167-.601.167c-.175 0-.334-.032-.478-.096a.77.77 0 0 1-.328-.261l-.002-.002a.672.672 0 0 1-.112-.373v-.015.001h.47c0 .251.15.377.45.377a.442.442 0 0 0 .261-.067.224.224 0 0 0 .094-.182v-.009z" /></symbol>
<symbol id="icon-logo-five" viewBox="0 0 57 32"><path d="M14.27 23.859a.768.768 0 0 1 .197.56.756.756 0 0 1-.073.326l.002-.005a.83.83 0 0 1-.232.296l-.002.001a1.39 1.39 0 0 1-.885.24h.004-1.549v-3.301h1.517a1.377 1.377 0 0 1 .846.222l-.005-.003a.782.782 0 0 1 .227.277.71.71 0 0 1 .068.341.722.722 0 0 1-.176.505.842.842 0 0 1-.462.258.893.893 0 0 1 .523.283zm-1.816-.498h.649a.655.655 0 0 0 .412-.11.386.386 0 0 0 .109-.144l.001-.003a.358.358 0 0 0 .03-.145l-.001-.033v.001l.001-.028a.376.376 0 0 0-.031-.15l.001.002a.399.399 0 0 0-.108-.147h-.001a.665.665 0 0 0-.373-.113l-.054.002h.002-.638v.867zm1.124 1.266a.407.407 0 0 0 .118-.149l.001-.003a.37.37 0 0 0 .034-.158l-.001-.027v.001l.001-.024a.38.38 0 0 0-.037-.165l.001.002a.41.41 0 0 0-.121-.151l-.001-.001a.705.705 0 0 0-.397-.121l-.045.001h.002-.68v.908h.689a.727.727 0 0 0 .435-.115zm3.793.651-.843-1.291h-.317v1.291h-.726v-3.302h1.374a1.433 1.433 0 0 1 .96.284l-.004-.003a1.016 1.016 0 0 1 .329.735.99.99 0 0 1-.228.633l.001-.002a1.152 1.152 0 0 1-.649.335l-.006.001.899 1.319h-.789zm-1.161-1.74h.594c.412 0 .619-.166.619-.5l.001-.027a.464.464 0 0 0-.035-.176l.001.003a.494.494 0 0 0-.118-.171.68.68 0 0 0-.47-.133h.003-.601l.007 1.005zm5.129 1.075h-1.446l-.255.665h-.761l1.328-3.265h.823l1.323 3.265h-.761l-.25-.665zm-.194-.499-.529-1.394-.529 1.394h1.057zm5.16 1.164h-.72l-1.616-2.245v2.245h-.719v-3.302h.719l1.616 2.259v-2.259h.72v3.302zm4.113-.79a1.501 1.501 0 0 1-.652.582c-.28.132-.608.209-.955.209l-.062-.001h.003-1.282v-3.302h1.283l.06-.001c.345 0 .673.075.968.209l-.015-.006c.276.128.503.329.652.576a1.78 1.78 0 0 1 0 1.733zm-.825-.079c.196-.205.317-.482.318-.788 0-.289-.113-.569-.318-.788a1.317 1.317 0 0 0-.906-.281h.004-.5v2.138h.5a1.323 1.323 0 0 0 .905-.282l-.003.002zm-7.803-20.8s9.3 3.215 9.103 7.867v7.869s-9.294-3.216-9.1-7.869l-.003-7.867zm17.389 13.894a13.494 13.494 0 0 1 5.909-1.994v-2.464c-2.444.863-4.517 2.427-5.909 4.458z" /><path d="M38.124 18.245c1.437-2.651 3.93-4.696 6.964-5.716V5.431s-13.245 4.58-12.965 11.205v11.203s.59-.205 1.519-.589c0-.358 0-.719.043-1.083.274-3.075 1.87-5.925 4.439-7.924z" /><path d="M36.864 22.407c.069-.777.225-1.546.463-2.294-1.599 1.725-2.568 3.867-2.769 6.122-.02.213-.03.426-.036.645a36.805 36.805 0 0 0 2.761-1.334l-.214.105a10.624 10.624 0 0 1-.206-3.244zm.527.04a10.167 10.167 0 0 0 .175 3.003l-.012-.066c3.619-1.983 7.685-5.046 7.528-8.748v-.323c-2.586.265-5.004 1.3-6.885 2.946a10.02 10.02 0 0 0-.804 3.148l-.003.04z" /></symbol>
<symbol id="icon-logo-six" viewBox="0 0 57 32"><path d="M28.493 14.618a1.563 1.563 0 0 1-.322-1.065v.005-1.538c0-.471.107-.829.321-1.075.213-.245.581-.367 1.101-.366.489 0 .837.105 1.042.313.224.266.333.591.308.919v.362h-.875v-.366a1.799 1.799 0 0 0-.026-.358.34.34 0 0 0-.125-.212l-.001-.001a.499.499 0 0 0-.279-.084l-.039.001h.002l-.038-.001a.53.53 0 0 0-.297.09l.002-.001a.415.415 0 0 0-.145.232v.003a1.74 1.74 0 0 0-.035.351v.031-.002 1.866c-.014.18.025.36.112.524.045.056.104.1.172.126l.003.001a.48.48 0 0 0 .228.029H29.6a.47.47 0 0 0 .311-.086l-.002.001a.37.37 0 0 0 .13-.224v-.002c.02-.124.03-.249.027-.374v-.379h.875v.346a1.397 1.397 0 0 1-.305.969l.002-.003c-.201.228-.544.342-1.047.342s-.884-.122-1.1-.375zm3.644.016c-.221-.24-.332-.588-.332-1.05v-1.618c0-.457.11-.803.332-1.037s.59-.351 1.109-.35c.515 0 .882.117 1.103.35.221.235.333.58.333 1.037v1.617c0 .457-.112.807-.337 1.049s-.59.361-1.1.361-.886-.122-1.109-.359zm1.516-.389a.902.902 0 0 0 .105-.478v-1.981a.872.872 0 0 0-.105-.474l.002.005a.425.425 0 0 0-.176-.128l-.003-.001a.473.473 0 0 0-.233-.027h.002a.49.49 0 0 0-.235.028l.003-.001a.416.416 0 0 0-.179.128l-.001.001a.855.855 0 0 0-.105.469v1.99a.888.888 0 0 0 .105.479.605.605 0 0 0 .639.116l-.004.001a.563.563 0 0 0 .185-.118v-.01zm2.082-3.619h.942l.708 2.984.725-2.984h.916l.093 4.307h-.678l-.073-2.994-.699 2.994h-.544l-.724-3.005-.067 3.005h-.685l.085-4.307zm4.441 0h1.468c.845 0 1.268.407 1.268 1.223 0 .781-.445 1.171-1.335 1.17h-.5v1.914h-.906l.005-4.308zm1.254 1.841a.707.707 0 0 0 .498-.136.699.699 0 0 0 .131-.486 1.325 1.325 0 0 0-.046-.4l.002.009a.317.317 0 0 0-.067-.119.386.386 0 0 0-.112-.085l-.002-.001a.913.913 0 0 0-.357-.071l-.05.001h.002-.351v1.287h.352zm2.789-1.841h.973l.998 4.307h-.845l-.197-.993h-.868l-.203.993h-.857l.998-4.307zm.831 2.816-.339-1.808-.339 1.808h.677zm1.946-2.816h.635l1.213 2.457v-2.457h.752v4.307h-.603l-1.221-2.565v2.565h-.777l.002-4.307zm4.361 2.665-1.009-2.659h.85l.616 1.708.578-1.708h.832l-.997 2.659v1.642h-.869V13.29zm-21.465 3.526v.225h-.739v1.75h-.31v-1.75H28.1v-.225h1.792zm2.318 1.976h-.246a.105.105 0 0 1-.061-.019.1.1 0 0 1-.039-.045v-.001l-.214-.469h-1.026l-.213.469a.126.126 0 0 1-.033.053.108.108 0 0 1-.062.019h-.245l.906-1.975h.315l.917 1.968zm-1.501-.734h.855l-.363-.804a1.278 1.278 0 0 1-.064-.176l-.003-.01-.034.105-.033.083-.358.803zm3.062.539a1.018 1.018 0 0 0 .316-.023 1.018 1.018 0 0 0 .252-.085v-.444h-.365a.076.076 0 0 1-.046-.016c-.006-.004-.01-.01-.014-.016a.034.034 0 0 1-.004-.018v-.153h.703v.757c-.11.068-.237.123-.372.158l-.01.002c-.075.019-.15.033-.227.041a2.598 2.598 0 0 1-.265.012h-.011c-.159 0-.312-.027-.455-.077l.01.003a1.123 1.123 0 0 1-.364-.208l.002.001a.952.952 0 0 1-.231-.307l-.002-.006a.965.965 0 0 1-.083-.397v-.013.001-.012c0-.145.03-.283.084-.407l-.003.007a.907.907 0 0 1 .234-.313c.103-.089.227-.158.363-.205.155-.051.32-.076.485-.074.084 0 .169.005.252.017.074.011.146.027.215.05.064.02.124.047.181.078.055.031.108.065.158.103l-.087.122a.073.073 0 0 1-.029.026.093.093 0 0 1-.042.011.111.111 0 0 1-.057-.016h.001a.892.892 0 0 1-.094-.05l.005.003a.814.814 0 0 0-.115-.052l-.006-.002a1.027 1.027 0 0 0-.16-.043l-.007-.001a1.34 1.34 0 0 0-.218-.017h-.013.001-.011c-.121 0-.238.02-.346.057l.008-.002a.774.774 0 0 0-.267.156.672.672 0 0 0-.166.241l-.002.005a.917.917 0 0 0 .002.665l-.002-.006a.76.76 0 0 0 .445.405c.115.034.237.047.359.039zm2.888-.031h.989v.225h-1.291v-1.975h.309l-.007 1.75zm2.018.226h-.309v-1.975h.309v1.975zm1.153-1.966a.14.14 0 0 1 .047.036l1.324 1.489-.001-.035.001-.037v.002-1.472h.27v1.984h-.166a.14.14 0 0 1-.058-.012h.001a.162.162 0 0 1-.048-.037l-1.323-1.488v1.536h-.259v-1.975h.161c.018 0 .035.003.051.009zm3.923-.01v.217h-1.098v.652h.89v.21h-.89v.674h1.098v.218h-1.417v-1.971h1.417zm-32.467-12.2 13.757 3.372v11.818l-13.757-3.371V4.616zm-.882-1.008V17.01l15.52 3.806V7.417L10.404 3.61z" /><path d="M18.722 27.036 3.2 23.227V9.828l15.522 3.807v13.401z" /><path d="m10.661 4.465 13.578 3.33-5.774 4.987L4.886 9.45l5.776-4.986zm-.257-.856L3.2 9.828l15.522 3.808 7.202-6.22-15.52-3.807zm9.191 22.673 6.329-5.466-6.33-1.552v7.019z" /></symbol>
<symbol id="icon-logo-one" viewBox="0 0 57 32"><path d="m20.267 3.733 3.738 3.538-6.938-.004v17.167H35.2V17.87l3.733 3.534V3.733H20.266zm14.769 13.722L24.439 7.423h10.597v10.032zm-3.29 4.468h-11.81V10.378h.835v10.763h10.975v.781zm-9.021 4.797-.436.899-.436-.899h-.366l.637 1.198v.698h.331v-.698l.635-1.198h-.364zm.549 1.896.154-.442h.734l.155.442h.344l-.717-1.896h-.296l-.716 1.896h.342zm.52-1.493.275.786h-.549l.275-.787zm1.737.74a.425.425 0 0 0-.071.238v.003c0 .16.056.29.168.389s.263.149.45.149a.784.784 0 0 0 .485-.153l.107.126h.367l-.278-.33a.95.95 0 0 0 .164-.574h-.275a.768.768 0 0 1-.079.348l-.366-.432.129-.094a.724.724 0 0 0 .195-.195l.002-.003a.41.41 0 0 0 .06-.216v-.01a.39.39 0 0 0-.132-.293.477.477 0 0 0-.32-.123h-.02.001c-.153 0-.274.044-.364.13s-.135.203-.135.352c0 .061.014.123.043.189.03.065.082.144.155.237a1.13 1.13 0 0 0-.282.261zm.856.42a.478.478 0 0 1-.299.107h-.015a.31.31 0 0 1-.212-.083.286.286 0 0 1-.085-.203v-.011.001c0-.101.052-.192.156-.271l.041-.029.414.489zm-.34-.84c-.09-.11-.134-.202-.134-.275 0-.063.019-.116.055-.157a.184.184 0 0 1 .139-.063h.015c.052 0 .1.02.135.054a.168.168 0 0 1 .056.126v.007a.234.234 0 0 1-.08.177l-.041.032-.145.099zm3.086 1.03a.689.689 0 0 0 .224-.474h-.328c-.018.135-.059.232-.124.29s-.163.087-.292.087c-.141 0-.249-.054-.323-.162s-.11-.264-.11-.469v-.167c.002-.203.041-.355.117-.46a.386.386 0 0 1 .331-.157c.123 0 .217.03.28.091s.104.158.12.294h.328c-.021-.207-.095-.368-.222-.482s-.296-.171-.506-.171a.717.717 0 0 0-.681.421l-.002.005c-.06.133-.096.288-.096.451v.023-.001.177c.003.174.035.327.098.46s.151.234.266.306a.75.75 0 0 0 .4.107c.216 0 .389-.056.519-.169zm1.936-.266c.064-.141.097-.304.097-.49v-.125c0-.169-.036-.329-.102-.473l.003.007a.728.728 0 0 0-.274-.318l-.003-.002c-.119-.075-.256-.112-.411-.112s-.291.037-.411.113a.738.738 0 0 0-.277.324 1.135 1.135 0 0 0-.098.466v.025-.001.107c.001.181.034.341.099.48a.752.752 0 0 0 .279.322.764.764 0 0 0 .411.112.755.755 0 0 0 .412-.112.737.737 0 0 0 .276-.323zm-.353-1.072c.08.112.119.274.119.484v.099c0 .213-.039.376-.118.487a.386.386 0 0 1-.336.167h-.014a.393.393 0 0 1-.324-.17l-.001-.001c-.081-.114-.121-.275-.121-.483v-.109c.002-.204.043-.362.122-.473a.39.39 0 0 1 .321-.168h.014-.001a.39.39 0 0 1 .338.168z" /></symbol>
<symbol id="icon-smartphone" viewBox="0 0 20 32"><path  d="M17 0H3C1.346 0 0 1.346 0 3v26c0 1.654 1.346 3 3 3h14c1.654 0 3-1.346 3-3V3c0-1.654-1.346-3-3-3zM3 2h14a1 1 0 0 1 1 1v21H2V3a1 1 0 0 1 1-1zm14 28H3a1 1 0 0 1-1-1v-3h16v3a1 1 0 0 1-1 1z" /><path  d="M4.708 27.478a.889.889 0 0 1 .001 1.319l-.001.001a1.048 1.048 0 0 1-1.417 0l.001.001a.889.889 0 0 1-.001-1.319l.001-.001a1.048 1.048 0 0 1 1.417 0l-.001-.001z" /></symbol>
<symbol id="icon-twitter" viewBox="0 0 32 32"><path d="M32 6.078c-1.1.493-2.376.857-3.713 1.028l-.068.007a6.556 6.556 0 0 0 2.873-3.579l.013-.046a12.89 12.89 0 0 1-4.076 1.573l-.084.014A6.558 6.558 0 0 0 15.6 9.557v.004c0 .52.043 1.021.152 1.496-5.454-.266-10.28-2.88-13.522-6.861a6.524 6.524 0 0 0-.902 3.313v.001a6.57 6.57 0 0 0 2.914 5.451 6.453 6.453 0 0 1-2.994-.823l.033.017v.072a6.592 6.592 0 0 0 5.213 6.44l.043.008a6.403 6.403 0 0 1-1.662.215h-.061.003c-.419 0-.843-.024-1.242-.112.85 2.598 3.261 4.509 6.13 4.57a13.096 13.096 0 0 1-8.123 2.8H1.57h.001c-.538 0-1.053-.026-1.57-.091 2.827 1.846 6.287 2.944 10.004 2.944h.063-.003c12.072 0 18.672-10 18.672-18.669 0-.288-.01-.57-.024-.848a13.19 13.19 0 0 0 3.258-3.356l.03-.047z" /></symbol>
<symbol id="icon-close" viewBox="0 0 32 32"><path d="M32 3.223 28.777 0 16 12.777 3.223 0 0 3.223 12.777 16 0 28.777 3.223 32 16 19.223 28.777 32 32 28.777 19.223 16 32 3.223z"/></symbol>
<symbol id="icon-send" viewBox="0 0 32 32"><path fill="#fff" d="M32 0 0 18l10.227 3.787L26 7 14.003 23.187l.009.003-.012-.003V32l5.735-6.691L27.002 28l4.999-28z" style="fill:var(--color1, #fff)"/></symbol>
<symbol id="icon-box" viewBox="0 0 34 32">
<path d="M30.34 3.556v24.887h-26.547v-24.887h26.547zM30.34 0h-26.547c-2.086 0-3.793 1.6-3.793 3.556v24.887c0 1.956 1.707 3.556 3.793 3.556h26.547c2.086 0 3.793-1.6 3.793-3.556v-24.887c0-1.956-1.707-3.556-3.793-3.556z"></path>
</symbol>
<symbol id="icon-person" viewBox="0 0 32 32">
<path d="M16 16c2.946 0 5.333-2.388 5.333-5.333s-2.388-5.333-5.333-5.333v0c-2.946 0-5.333 2.388-5.333 5.333s2.388 5.333 5.333 5.333v0zM16 18.667c-3.561 0-10.667 1.787-10.667 5.333v1.333c0 0.732 0.599 1.333 1.333 1.333h18.667c0.732 0 1.333-0.601 1.333-1.333v-1.333c0-3.547-7.108-5.333-10.667-5.333z"></path>
</symbol>
<symbol id="icon-phone" viewBox="0 0 32 32">
<path d="M24.882 19.774l-3.268-0.373c-0.090-0.011-0.194-0.018-0.299-0.018-0.707 0-1.348 0.287-1.811 0.75l-2.368 2.368c-3.669-1.894-6.585-4.81-8.427-8.372l-0.051-0.108 2.382-2.377c0.463-0.463 0.75-1.103 0.75-1.81 0-0.106-0.006-0.21-0.019-0.312l0.001 0.012-0.373-3.243c-0.155-1.287-1.24-2.276-2.557-2.276-0.001 0-0.002 0-0.003 0h-2.226c-1.454 0-2.663 1.209-2.574 2.663 0.683 10.987 9.47 19.76 20.444 20.443 1.452 0.089 2.663-1.12 2.663-2.574v-2.226c0-0.004 0-0.008 0-0.012 0-1.308-0.985-2.386-2.253-2.532l-0.012-0.001z"></path>
</symbol>
<symbol id="icon-email" viewBox="0 0 32 32">
<path d="M26.667 5.333h-21.333c-1.467 0-2.652 1.2-2.652 2.667l-0.014 16c0 1.467 1.2 2.667 2.667 2.667h21.333c1.467 0 2.667-1.2 2.667-2.667v-16c0-1.467-1.2-2.667-2.667-2.667zM26.133 11.001l-9.426 5.892c-0.201 0.126-0.446 0.2-0.708 0.2s-0.506-0.075-0.713-0.204l0.006 0.003-9.426-5.892c-0.336-0.201-0.557-0.562-0.557-0.975 0-0.625 0.507-1.132 1.132-1.132 0.233 0 0.449 0.070 0.629 0.19l-0.004-0.003 8.933 5.586 8.933-5.588c0.176-0.118 0.392-0.188 0.624-0.188 0.625 0 1.132 0.507 1.132 1.132 0 0.413-0.221 0.775-0.552 0.972l-0.005 0.003z"></path>
</symbol>
<symbol id="icon-check" viewBox="0 0 34 32">
<path d="M8.442 16.538l-0.147-0.141-0.147 0.139-2.057 1.95 0.162 0.156 7.605 7.253 0.147-0.141 16.171-15.426-0.162-0.154-2.029-1.935-0.147 0.141-13.98 13.325-5.417-5.167z"></path>
</symbol>
<symbol id="icon-close-mob" viewBox="0 0 32 32">
<path d="M23.734 10.304l-1.504-1.504-5.963 5.962-5.962-5.962-1.504 1.504 5.962 5.962-5.962 5.963 1.504 1.504 5.962-5.963 5.963 5.963 1.504-1.504-5.963-5.963 5.963-5.962z"></path>
</symbol>
<symbol id="icon-menu-mob" viewBox="0 0 32 32">
<path d="M6.4 11.734v-2.134h19.2v2.134h-19.2zM6.4 17.066h19.2v-2.133h-19.2v2.133zM6.4 22.4h19.2v-2.134h-19.2v2.134z"></path>
</symbol>
<symbol id="icon-e" viewBox="0 0 32 32"><path d="M21.678 22.041c.292 0 .542.115.75.344.229.208.344.469.344.781a.979.979 0 0 1-.344.75 1.024 1.024 0 0 1-.75.313H11.397c-.313 0-.583-.115-.813-.344s-.344-.5-.344-.812V7.542c0-.313.115-.583.344-.812.229-.25.5-.375.813-.375h10.281c.292 0 .542.115.75.344.229.208.344.458.344.75s-.115.552-.344.781a1.024 1.024 0 0 1-.75.313h-9.094v5.656h8.156c.292 0 .542.104.75.313.229.208.344.469.344.781 0 .292-.104.552-.313.781a1.061 1.061 0 0 1-.781.313h-8.156v5.656h9.094z"/><path d="m22.428 22.385-1.015.922.044.048.048.044.922-1.015zm0 1.531-.922-1.015-.024.022-.023.023.97.97zM10.584 6.729l.97.97.021-.021.02-.022-1.011-.927zm11.844-.032-1.015.923.044.048.048.044.922-1.015zm0 1.532zm-9.844.312V7.17h-1.371v1.371h1.371zm0 5.656h-1.371v1.371h1.371v-1.371zm8.906.313-.97.97.023.023.024.022.923-1.015zm.031 1.562.97.97.023-.023.022-.024-1.015-.922zm-8.937.313v-1.371h-1.371v1.371h1.371zm0 5.656h-1.371v1.371h1.371v-1.371zm9.094 1.371a.409.409 0 0 1-.165-.039c-.063-.029-.095-.061-.1-.066l2.03-1.845a2.35 2.35 0 0 0-1.765-.793v2.743zm-.173-.012c-.015-.013-.048-.05-.075-.111s-.03-.108-.03-.123h2.743c0-.695-.275-1.325-.793-1.796l-1.845 2.03zm-.105-.234c0-.039.009-.1.039-.165.029-.063.061-.095.066-.1l1.845 2.03a2.35 2.35 0 0 0 .793-1.765H21.4zm.058-.22c.011-.011.044-.039.099-.062s.1-.027.121-.027V25.6c.66 0 1.257-.252 1.72-.714l-1.94-1.939zm.22-.089H11.397V25.6h10.281v-2.743zm-10.282 0c.016 0 .053.004.097.022.043.018.063.038.06.035l-1.94 1.94a2.48 2.48 0 0 0 1.782.745v-2.743zm.158.058c-.002-.002.017.017.035.06s.022.081.022.097H8.868c0 .691.27 1.307.745 1.782l1.94-1.94zm.058.157V7.541H8.869v15.531h2.743zm0-15.531a.276.276 0 0 1-.022.097c-.018.043-.038.063-.035.06l-1.94-1.94A2.48 2.48 0 0 0 8.87 7.54h2.743zm-.017.114c.008-.009-.01.014-.061.037a.334.334 0 0 1-.137.032V4.981c-.732 0-1.359.313-1.823.82l2.022 1.853zm-.199.07h10.281V4.982H11.396v2.743zm10.282 0a.409.409 0 0 1-.165-.039c-.063-.029-.095-.061-.1-.066l2.03-1.845a2.35 2.35 0 0 0-1.765-.793v2.743zm-.173-.013c-.005-.005-.037-.037-.066-.1a.409.409 0 0 1-.039-.165h2.743c0-.704-.297-1.315-.793-1.765l-1.845 2.03zm-.105-.265c0-.039.009-.09.03-.138.02-.046.039-.061.028-.05l1.94 1.939c.455-.455.745-1.054.745-1.751H21.4zm.058-.188c.011-.011.044-.039.099-.062s.1-.027.121-.027v2.743c.66 0 1.257-.252 1.72-.714l-1.94-1.939zm.22-.089h-9.094v2.743h9.094V7.17zM11.212 8.541v5.656h2.743V8.541h-2.743zm1.372 7.028h8.156v-2.743h-8.156v2.743zm8.156 0a.344.344 0 0 1-.22-.089l1.94-1.94a2.392 2.392 0 0 0-1.72-.714v2.743zm-.172-.044c-.015-.013-.048-.05-.075-.111s-.03-.108-.03-.123h2.743c0-.695-.275-1.325-.793-1.796l-1.845 2.03zm-.106-.234c0-.022.005-.057.02-.095.015-.037.03-.052.024-.046l2.03 1.845a2.503 2.503 0 0 0 .669-1.704h-2.743zm.09-.188a.33.33 0 0 1 .109-.069c.049-.02.081-.02.08-.02v2.743a2.43 2.43 0 0 0 1.751-.714l-1.939-1.939zm.188-.09h-8.156v2.743h8.156v-2.743zm-9.528 1.372v5.656h2.743v-5.656h-2.743zm1.372 7.027h9.094v-2.743h-9.094v2.743z"/></symbol><symbol id="icon-p" viewBox="0 0 32 32"><path d="M16.783 7.268c2.375 0 4.156.615 5.344 1.844.979.979 1.479 2.26 1.5 3.844 0 1.563-.5 2.844-1.5 3.844-1.208 1.229-2.99 1.844-5.344 1.844h-4.656v5.469c0 .313-.115.583-.344.813s-.51.344-.844.344c-.313 0-.583-.115-.813-.344s-.344-.5-.344-.813V8.457c0-.313.115-.583.344-.812.229-.25.5-.375.813-.375h5.844zm-.219 9.187c1.75 0 3.021-.375 3.812-1.125.625-.583.927-1.375.906-2.375 0-1.583-.792-2.635-2.375-3.156-.625-.208-1.406-.323-2.344-.344h-4.438v7h4.438z"/><path d="m22.127 9.112-.986.953.008.008.008.008.97-.97zm1.5 3.843h1.371v-.018l-1.371.018zm-1.5 3.844-.97-.97-.008.008.978.961zm-10 1.844v-1.371h-1.371v1.371h1.371zm-2-11 .97.97.021-.021.02-.022-1.011-.927zm10.25 7.687-.936-1.003-.004.003-.004.004.943.996zm.906-2.375h-1.371v.028l1.371-.029zm-2.375-3.156-.434 1.301.005.002.429-1.303zm-2.344-.344.03-1.371h-.03v1.371zm-4.437 0V8.084h-1.371v1.371h1.371zm0 7h-1.371v1.371h1.371v-1.371zm4.656-7.816c2.151 0 3.516.554 4.357 1.425l1.973-1.906c-1.533-1.587-3.731-2.262-6.33-2.262v2.743zm4.374 1.442c.69.69 1.082 1.611 1.098 2.892l2.743-.036c-.025-1.885-.633-3.527-1.902-4.795l-1.94 1.94zm1.098 2.874c0 1.241-.384 2.159-1.098 2.874l1.94 1.94c1.285-1.285 1.902-2.929 1.902-4.814h-2.743zm-1.106 2.883c-.868.882-2.241 1.434-4.366 1.434v2.743c2.584 0 4.773-.678 6.322-2.254l-1.956-1.923zm-4.366 1.433h-4.656v2.743h4.656v-2.743zm-6.028 1.372v5.469h2.743v-5.469h-2.743zm0 5.469c0-.016.004-.053.023-.097s.038-.063.035-.06l1.939 1.939a2.48 2.48 0 0 0 .745-1.782h-2.743zm.058-.158c.006-.006.03-.026.069-.043s.063-.015.056-.015v2.743c.685 0 1.319-.251 1.813-.745l-1.939-1.939zm.126-.058c.016 0 .053.004.097.022.043.018.063.038.06.036l-1.94 1.939a2.48 2.48 0 0 0 1.782.745v-2.743zm.158.058c-.002-.002.017.017.035.06s.022.081.022.097H8.411c0 .691.27 1.307.745 1.782l1.94-1.939zm.057.158V8.456H8.411v15.656h2.743zm0-15.657a.276.276 0 0 1-.022.097c-.018.043-.038.063-.035.06l-1.94-1.94a2.48 2.48 0 0 0-.745 1.782h2.743zm-.016.115c.008-.009-.01.014-.061.037a.334.334 0 0 1-.137.032V5.896c-.732 0-1.359.313-1.823.82l2.022 1.853zm-.199.069h5.844V5.896h-5.844v2.743zm5.625 9.188c1.899 0 3.593-.399 4.756-1.501l-1.886-1.991c-.421.398-1.268.749-2.869.749v2.743zm4.749-1.494c.959-.895 1.369-2.089 1.342-3.406l-2.742.057c.014.683-.18 1.073-.471 1.344l1.872 2.005zm1.341-3.378c0-1.027-.261-1.992-.869-2.801-.604-.803-1.462-1.333-2.449-1.658l-.857 2.605c.597.196.926.452 1.114.702.183.243.318.596.318 1.152h2.743zm-3.312-4.457c-.797-.266-1.725-.391-2.747-.414l-.061 2.742c.853.019 1.488.123 1.941.274l.867-2.602zm-2.778-.414h-4.438v2.743h4.438V8.084zm-5.809 1.371v7h2.743v-7h-2.743zm1.372 8.372h4.438v-2.743h-4.438v2.743z"/></symbol><symbol id="icon-a" viewBox="0 0 32 32"><path d="M24.377 23.154c.083.208.125.427.125.656 0 .208-.104.427-.313.656-.188.229-.51.344-.969.344-.438 0-.76-.24-.969-.719l-1.656-3.969h-8.719l-1.625 3.969c-.208.479-.542.719-1 .719-.438 0-.76-.115-.969-.344-.187-.229-.281-.448-.281-.656 0-.229.042-.448.125-.656l6.5-15.406c.292-.708.792-1.063 1.5-1.063h.25c.688 0 1.188.354 1.5 1.063l6.5 15.406zm-4.656-5.156-3.469-8.344-3.469 8.344h6.938z"/><path d="m24.377 23.154 1.273-.509-.005-.012-.005-.012-1.264.533zm-.188 1.313-1.015-.922-.024.026-.023.028 1.061.868zm-1.937-.375-1.266.528.004.009.004.009 1.258-.547zm-1.656-3.969 1.266-.528-.352-.843h-.914v1.371zm-8.719 0v-1.371h-.92l-.349.852 1.269.52zm-1.625 3.969 1.258.547.006-.014.006-.014-1.269-.52zm-1.969.375-1.061.868.023.028.024.026 1.015-.922zm-.156-1.313-1.264-.533-.005.012-.005.012 1.273.509zm6.5-15.406 1.264.533.002-.005.002-.005-1.268-.522zm3.25 0 1.264-.533-.004-.01-.005-.01-1.255.554zm1.844 10.25v1.371h2.055l-.789-1.898-1.266.526zm-3.469-8.344 1.266-.526-1.266-3.046-1.266 3.046 1.266.526zm-3.469 8.344-1.266-.526-.789 1.898h2.055v-1.371zm10.32 5.666a.382.382 0 0 1 .027.147h2.743c0-.4-.074-.792-.223-1.166l-2.547 1.019zm.027.147a.64.64 0 0 1 .055-.269c.019-.04.027-.038-.011.003l2.03 1.845c.329-.361.669-.896.669-1.579H23.13zm-.002-.212a.613.613 0 0 1 .129-.119.455.455 0 0 1 .091-.048c.026-.009-.005.007-.127.007v2.743c.643 0 1.466-.157 2.03-.847l-2.123-1.737zm.093-.16a.47.47 0 0 1 .246.09c.081.06.078.099.042.015l-2.515 1.094c.172.395.435.794.839 1.094a2.3 2.3 0 0 0 1.387.45v-2.743zm.296.125-1.656-3.969-2.531 1.056 1.656 3.969 2.531-1.056zm-2.921-4.812h-8.719v2.743h8.719v-2.743zm-9.988.852-1.625 3.969 2.538 1.039 1.625-3.969-2.538-1.039zm-1.614 3.941c-.032.074-.031.031.051-.028a.426.426 0 0 1 .207-.078v2.743a2.36 2.36 0 0 0 1.394-.438c.415-.298.687-.7.864-1.106l-2.515-1.094zm.258-.106c-.104 0-.132-.014-.112-.007a.465.465 0 0 1 .158.112l-2.03 1.845c.561.617 1.323.793 1.984.793v-2.743zm.092.16c-.031-.038-.026-.041-.012-.008a.566.566 0 0 1 .041.22H6.63c0 .635.286 1.152.591 1.525l2.123-1.737zm.029.212c0-.058.01-.104.027-.147l-2.547-1.019c-.15.374-.223.766-.223 1.166h2.743zm.017-.123 6.5-15.406-2.527-1.066-6.5 15.406 2.527 1.066zM15.895 8.27a.824.824 0 0 1 .089-.168c.01-.014.018-.022.023-.027l.005-.004.002-.001.002-.001.006-.002a.403.403 0 0 1 .106-.011V5.313c-.592 0-1.182.152-1.699.518-.509.361-.849.86-1.069 1.394l2.536 1.044zm.232-.213h.25V5.314h-.25v2.743zm.25 0c.054 0 .08.007.088.009.007.002.008.003.009.004s.065.045.147.231l2.509-1.107c-.23-.522-.572-1.009-1.071-1.362a2.871 2.871 0 0 0-1.683-.518v2.743zm.236.224 6.5 15.406 2.527-1.066-6.5-15.406-2.527 1.066zm4.374 9.191-3.469-8.344-2.533 1.053 3.469 8.344 2.533-1.053zm-6.002-8.344-3.469 8.344 2.533 1.053 3.469-8.344-2.533-1.053zM12.783 19.37h6.938v-2.743h-6.938v2.743z"/></symbol><symbol id="icon-g" viewBox="0 0 32 32"><path d="M17.087 23.205a9.363 9.363 0 0 0 4.5-1.125v-4.625h-4.25a1.02 1.02 0 0 1-.75-.313c-.188-.208-.281-.458-.281-.75s.104-.542.313-.75a.99.99 0 0 1 .719-.313h5.063c.333 0 .615.125.844.375.25.229.375.521.375.875v5.781c0 .375-.094.708-.281 1a1.469 1.469 0 0 1-.688.594c-1.917.958-3.865 1.438-5.844 1.438-2.688 0-4.854-.854-6.5-2.563s-2.479-3.906-2.5-6.594c0-2.708.865-4.948 2.594-6.719 1.646-1.667 3.75-2.5 6.313-2.5 1.458 0 2.688.177 3.688.531s1.896.792 2.688 1.312c.333.187.5.458.5.812s-.094.635-.281.844c-.167.208-.385.313-.656.313s-.49-.042-.656-.125c-1.646-.958-3.323-1.438-5.031-1.438-1.979 0-3.604.604-4.875 1.813-1.313 1.271-1.958 2.99-1.938 5.156 0 2.021.604 3.677 1.813 4.969 1.271 1.333 2.979 2 5.125 2z"/><path d="m21.588 22.08.649 1.208.722-.388v-.82h-1.371zm0-4.625h1.371v-1.371h-1.371v1.371zm-5-.312-1.019.917.024.027.025.026.97-.97zm6.656-1.438-1.011.927.04.044.044.04.927-1.011zm.093 7.657-1.154-.742-.007.011-.007.011 1.168.719zm-.687.593-.54-1.261-.037.016-.036.018.613 1.227zM7.806 16.237H6.435v.01l1.371-.011zM10.4 9.518l-.976-.964-.005.005.981.958zm12.687-.656-.754 1.146.04.026.042.023.672-1.195zm.219 1.656-1.019-.917-.027.03-.025.031 1.071.857zm-1.312.187-.69 1.185.038.022.039.02.613-1.227zm-9.906.375-.945-.994-.009.009.954.985zm-1.938 5.157h1.371v-.014l-1.371.013zm1.813 4.968-1.002.937.004.005.004.005.993-.946zm5.124 3.372c1.828 0 3.551-.43 5.149-1.288l-1.298-2.416a7.996 7.996 0 0 1-3.851.962v2.743zm5.872-2.497v-4.625h-2.743v4.625h2.743zm-1.371-5.996h-4.25v2.743h4.25v-2.743zm-4.251 0a.344.344 0 0 1 .22.089l-1.94 1.939c.463.463 1.06.714 1.72.714v-2.743zm.27.141a.303.303 0 0 1 .071.167h-2.743c0 .615.209 1.196.633 1.667l2.039-1.835zm.071.168a.344.344 0 0 1-.089.22l-1.939-1.94a2.392 2.392 0 0 0-.714 1.72h2.743zm-.09.22a.417.417 0 0 1-.251.09V13.96c-.668 0-1.248.274-1.688.714l1.939 1.94zm-.251.089H22.4v-2.743h-5.063v2.743zm5.063 0c-.009 0-.047-.003-.096-.024s-.072-.046-.071-.045l2.022-1.853a2.47 2.47 0 0 0-1.855-.82v2.743zm-.083.014a.271.271 0 0 1-.053-.08c-.019-.044-.017-.069-.017-.056h2.743c0-.719-.272-1.384-.82-1.886l-1.853 2.022zm-.07-.136v5.781h2.743V16.58h-2.743zm0 5.782c0 .134-.03.206-.063.258l2.307 1.483a3.182 3.182 0 0 0 .499-1.742h-2.743zm-.078.281c-.013.022-.022.03-.025.032s-.012.01-.034.02l1.08 2.521a2.836 2.836 0 0 0 1.315-1.136l-2.336-1.438zm-.132.086c-1.742.871-3.481 1.293-5.23 1.293v2.743c2.209 0 4.366-.537 6.457-1.582l-1.227-2.453zm-5.231 1.292c-2.369 0-4.16-.739-5.512-2.143l-1.975 1.903c1.94 2.013 4.482 2.982 7.488 2.982V24.02zm-5.512-2.142c-1.369-1.421-2.098-3.266-2.116-5.653l-2.743.021c.023 2.988.961 5.539 2.884 7.535l1.975-1.903zm-2.116-5.642c0-2.387.749-4.271 2.204-5.761L9.42 8.56c-2.004 2.052-2.984 4.647-2.984 7.677h2.743zm2.198-5.756c1.363-1.38 3.103-2.092 5.337-2.092V5.646c-2.891 0-5.359.954-7.288 2.908l1.952 1.927zm5.336-2.092c1.357 0 2.42.166 3.23.453l.916-2.585c-1.191-.422-2.585-.61-4.145-.61V8.39zm3.23.453c.908.322 1.703.712 2.392 1.165l1.508-2.291a13.785 13.785 0 0 0-2.983-1.46l-.916 2.585zm2.473 1.215c.005.003-.059-.033-.121-.133a.507.507 0 0 1-.078-.25h2.743c0-.896-.476-1.601-1.199-2.008l-1.345 2.391zm-.199-.383c0 .057-.008.066 0 .043a.35.35 0 0 1 .071-.116l2.039 1.835c.469-.521.633-1.161.633-1.761h-2.743zm.019-.013c.033-.041.096-.101.192-.147s.178-.055.222-.055v2.743a2.17 2.17 0 0 0 1.727-.827l-2.142-1.713zm.415-.202c-.033 0-.058-.001-.077-.003l-.034-.004c-.009-.002.019.002.068.027l-1.227 2.453c.424.212.875.27 1.27.27V9.459zm.034.061c-1.831-1.066-3.744-1.624-5.721-1.624v2.743c1.439 0 2.88.401 4.341 1.251l1.38-2.37zm-5.722-1.624c-2.282 0-4.261.708-5.82 2.19l1.89 1.988c.982-.934 2.254-1.435 3.93-1.435V7.896zm-5.828 2.199c-1.633 1.581-2.379 3.688-2.355 6.155l2.743-.026c-.018-1.866.528-3.197 1.52-4.158l-1.908-1.97zm-2.355 6.142c0 2.315.702 4.323 2.182 5.906l2.003-1.874c-.937-1.001-1.443-2.306-1.443-4.032H8.778zm2.191 5.915c1.573 1.65 3.664 2.425 6.118 2.425v-2.743c-1.838 0-3.163-.558-4.132-1.575l-1.985 1.892z"/></symbol><symbol id="icon-m" viewBox="0 0 32 32"><path d="M23.762 6.229c.479 0 .875.167 1.187.5.333.333.5.729.5 1.187v15.281c0 .313-.115.583-.344.813s-.5.344-.812.344c-.313 0-.583-.115-.813-.344s-.344-.5-.344-.813V8.666l-5.938 14.625a1.738 1.738 0 0 1-.625.781c-.292.188-.625.281-1 .281s-.708-.094-1-.281a1.73 1.73 0 0 1-.656-.781L8.011 8.666v14.531c0 .313-.115.583-.344.813s-.51.344-.844.344c-.313 0-.583-.115-.813-.344s-.344-.5-.344-.813V7.916c0-.458.156-.854.469-1.187.333-.333.74-.5 1.219-.5h.844c.333 0 .635.104.906.313.292.208.51.458.656.75l5.812 14.5 5.813-14.5c.125-.292.323-.542.594-.75.292-.208.615-.313.969-.313h.813z"/><path d="m24.95 6.729-1 .938.015.016.016.016.97-.97zm-1.813 1.937h1.371l-2.642-.516 1.271.516zM17.2 23.291l-1.271-.516-.001.003-.001.003 1.273.509zm-.625.781.742 1.154.028-.018.027-.02-.797-1.116zm-2.656-.781-1.272.514.007.018.008.018 1.256-.55zM8.012 8.666l1.272-.514-2.643.514h1.371zM6.138 6.729l-.97-.97-.016.016-.015.016 1 .938zm2.968-.188L8.27 7.628l.019.015.02.014.797-1.116zm.656.75 1.273-.51-.021-.052-.025-.051-1.227.613zm5.813 14.5-1.273.51 1.273 3.176 1.273-3.176-1.273-.51zm5.813-14.5-1.261-.54-.006.015-.006.015 1.273.51zm.593-.75-.797-1.116-.02.014-.019.015.836 1.087zM23.762 7.6c.078 0 .113.013.124.018.01.004.03.014.063.049l2.001-1.876c-.586-.625-1.351-.933-2.188-.933v2.743zm.218.098c.084.084.098.135.098.218h2.743a2.99 2.99 0 0 0-.902-2.157l-1.939 1.94zm.099.218v15.281h2.743V7.916h-2.743zm0 15.281c0-.016.004-.053.022-.097s.038-.063.035-.06l1.939 1.939a2.48 2.48 0 0 0 .745-1.782h-2.743zm.058-.157c-.002.002.017-.017.06-.036s.081-.022.097-.022v2.743c.691 0 1.306-.27 1.782-.745l-1.939-1.939zm.157-.058c.016 0 .053.004.097.022.043.018.063.038.06.036l-1.94 1.939a2.48 2.48 0 0 0 1.782.745v-2.743zm.157.058c-.002-.002.017.017.035.06s.022.081.022.097h-2.743c0 .691.27 1.307.745 1.782l1.94-1.939zm.058.157V8.666h-2.743v14.531h2.743zM21.867 8.15l-5.938 14.625 2.541 1.032 5.937-14.625-2.541-1.032zm-5.94 14.632a.38.38 0 0 1-.149.175l1.594 2.232c.491-.35.872-.816 1.101-1.388l-2.547-1.019zm-.094.137a.44.44 0 0 1-.258.063v2.743c.616 0 1.211-.158 1.742-.499l-1.483-2.307zm-.258.063a.448.448 0 0 1-.258-.063l-1.483 2.307a3.182 3.182 0 0 0 1.742.499v-2.743zm-.258-.063a.36.36 0 0 1-.141-.177l-2.513 1.099c.249.568.64 1.044 1.171 1.385l1.483-2.307zm-.127-.142L9.284 8.152 6.741 9.179l5.906 14.625 2.543-1.027zM6.641 8.666v14.531h2.743V8.666H6.641zm0 14.531c0-.016.004-.053.022-.097s.038-.063.035-.06l1.939 1.939a2.48 2.48 0 0 0 .745-1.782H6.639zm.058-.157c.006-.006.03-.026.069-.043s.063-.015.056-.015v2.743c.685 0 1.319-.251 1.814-.745l-1.939-1.939zm.126-.058c.016 0 .053.004.097.022.043.018.063.038.06.036l-1.94 1.939a2.48 2.48 0 0 0 1.782.745v-2.743zm.157.058c-.002-.002.017.017.035.06s.022.081.022.097H4.296c0 .691.27 1.307.745 1.782l1.94-1.939zm.058.157V7.916H4.297v15.281H7.04zm0-15.281c0-.111.024-.171.098-.25L5.137 5.79a3.046 3.046 0 0 0-.84 2.126H7.04zm.067-.218c.071-.071.127-.098.249-.098V4.857c-.836 0-1.593.306-2.188.902l1.939 1.94zm.249-.098H8.2V4.857h-.844V7.6zm.844 0c.021 0 .028.003.03.003s.015.005.041.025l1.672-2.174a2.82 2.82 0 0 0-1.742-.597V7.6zm.109.057a.675.675 0 0 1 .227.247l2.453-1.227a3.417 3.417 0 0 0-1.086-1.253L8.309 7.656zm.181.144 5.812 14.5 2.546-1.021-5.812-14.5L8.49 7.801zm8.358 14.5 5.813-14.5-2.546-1.021-5.813 14.5 2.546 1.021zm5.8-14.47a.502.502 0 0 1 .169-.203l-1.672-2.174c-.442.34-.794.773-1.018 1.297l2.521 1.08zm.13-.174a.264.264 0 0 1 .172-.057V4.857c-.644 0-1.245.196-1.766.568l1.594 2.232zm.172-.057h.813V4.857h-.813V7.6z"/></symbol><symbol id="icon-o" viewBox="0 0 32 32"><path d="M9.392 9.123c1.625-1.708 3.792-2.562 6.5-2.562s4.875.854 6.5 2.562c1.583 1.688 2.406 3.896 2.469 6.625-.063 2.708-.885 4.917-2.469 6.625-1.625 1.708-3.792 2.563-6.5 2.563s-4.875-.854-6.5-2.563c-1.625-1.708-2.458-3.917-2.5-6.625.042-2.708.875-4.917 2.5-6.625zm6.5 13.625c2.083 0 3.719-.667 4.906-2 1.167-1.292 1.75-2.958 1.75-5s-.583-3.708-1.75-5c-1.208-1.354-2.844-2.021-4.906-2-2.083 0-3.729.667-4.938 2-1.167 1.292-1.74 2.958-1.719 5 0 2.042.573 3.708 1.719 5 1.208 1.333 2.854 2 4.938 2z"/><path d="M9.392 9.123zm13 0 1-.938-.003-.003-.003-.003-.994.945zm2.469 6.625 1.371.032.001-.031-.001-.032-1.371.031zm-2.469 6.625.994.945.006-.006.006-.007-1.006-.932zm-15.5-6.625-1.371-.021v.042l1.371-.021zm13.906 5-1.018-.919-.003.004-.003.004 1.024.912zm0-10-1.023.913.006.006 1.018-.919zm-4.906-2v1.371h.014l-.014-1.371zm-4.938 2-1.016-.921-.002.002 1.018.919zm-1.718 5h1.371v-.014l-1.371.014zm1.718 5-1.026.91.005.005.005.005 1.016-.921zm-.568-10.68c1.327-1.395 3.113-2.136 5.506-2.136V5.189c-3.023 0-5.57.967-7.494 2.989l1.987 1.89zm5.506-2.136c2.394 0 4.179.741 5.506 2.136l1.987-1.89c-1.923-2.022-4.471-2.989-7.494-2.989v2.743zm5.5 2.13c1.312 1.398 2.042 3.262 2.098 5.718l2.742-.063c-.069-3.003-.985-5.555-2.84-7.532l-2 1.877zm2.098 5.655c-.056 2.432-.784 4.301-2.104 5.724l2.012 1.864c1.847-1.993 2.765-4.54 2.834-7.526l-2.742-.063zm-2.092 5.711c-1.327 1.395-3.113 2.136-5.506 2.136v2.743c3.023 0 5.57-.967 7.494-2.989l-1.987-1.89zm-5.506 2.136c-2.394 0-4.179-.741-5.506-2.136l-1.987 1.89c1.923 2.022 4.471 2.989 7.494 2.989v-2.743zm-5.506-2.136c-1.352-1.422-2.085-3.282-2.122-5.701l-2.743.042c.046 2.998.98 5.554 2.878 7.549l1.987-1.89zm-2.123-5.659c.037-2.419.77-4.279 2.122-5.701l-1.987-1.89C6.5 10.173 5.567 12.729 5.52 15.727l2.743.042zm7.629 8.351c2.403 0 4.438-.784 5.93-2.459l-2.048-1.824c-.883.991-2.118 1.541-3.882 1.541v2.743zm5.924-2.453c1.433-1.586 2.104-3.6 2.104-5.919h-2.743c0 1.764-.496 3.084-1.396 4.081l2.035 1.838zm2.104-5.919c0-2.319-.671-4.333-2.104-5.919l-2.035 1.838c.9.997 1.396 2.316 1.396 4.081h2.743zm-2.098-5.913c-1.509-1.691-3.545-2.482-5.943-2.458l.028 2.743c1.727-.017 2.962.525 3.869 1.542l2.047-1.826zm-5.93-2.458c-2.403 0-4.443.784-5.954 2.45l2.032 1.842c.906-1 2.158-1.55 3.921-1.55V7.376zM9.937 9.829C8.5 11.42 7.841 13.44 7.865 15.762l2.743-.028c-.018-1.761.469-3.074 1.365-4.067L9.938 9.829zm-2.073 5.919c0 2.312.656 4.323 2.064 5.91l2.052-1.82c-.884-.996-1.373-2.319-1.373-4.09H7.864zm2.074 5.921c1.51 1.666 3.55 2.45 5.954 2.45v-2.743c-1.763 0-3.015-.549-3.921-1.55l-2.032 1.842z"/></symbol><symbol id="icon-h" viewBox="0 0 32 32"><path d="M22.087 7.6c.313 0 .583.115.813.344s.344.51.344.844v15.781c0 .313-.115.583-.344.813s-.5.344-.813.344-.583-.115-.812-.344a1.112 1.112 0 0 1-.344-.813v-6.781h-9.719v6.781c0 .313-.115.583-.344.813s-.51.344-.844.344c-.313 0-.583-.115-.813-.344s-.344-.5-.344-.813V8.788c0-.313.115-.583.344-.813.229-.25.5-.375.813-.375s.583.115.812.344c.25.229.375.51.375.844V15.6h9.719V8.788c0-.313.115-.583.344-.813.229-.25.5-.375.812-.375z"/><path d="M20.931 17.788h1.371v-1.371h-1.371v1.371zm-9.719 0v-1.371H9.841v1.371h1.371zm-2-9.813.97.97.021-.021.02-.022-1.011-.927zm1.626-.031-.97.97.021.021.022.02.927-1.011zm.374 7.656H9.841v1.371h1.371V15.6zm9.719 0v1.371h1.371V15.6h-1.371zm.344-7.625.97.97.021-.021.02-.022-1.011-.927zm.812.996c-.016 0-.053-.004-.097-.022s-.063-.038-.06-.035l1.94-1.94a2.48 2.48 0 0 0-1.782-.745v2.743zm-.157-.057c-.006-.006-.026-.03-.043-.07s-.015-.063-.015-.056h2.743c0-.685-.251-1.319-.745-1.814l-1.94 1.94zm-.058-.126v15.781h2.743V8.788h-2.743zm0 15.781c0-.016.004-.053.022-.097s.038-.063.035-.06l1.94 1.939a2.48 2.48 0 0 0 .745-1.782h-2.743zm.058-.157c-.002.002.017-.017.06-.036s.081-.022.097-.022v2.743c.691 0 1.307-.27 1.782-.745l-1.94-1.939zm.157-.058c.016 0 .053.004.097.022s.063.038.06.036l-1.94 1.939a2.48 2.48 0 0 0 1.782.745v-2.743zm.158.058c-.002-.002.017.017.035.06s.022.081.022.097h-2.743c0 .691.27 1.307.745 1.782l1.94-1.939zm.058.157v-6.781H19.56v6.781h2.743zm-1.372-8.153h-9.719v2.743h9.719v-2.743zm-11.09 1.372v6.781h2.743v-6.781H9.841zm0 6.781c0-.016.004-.053.023-.097s.038-.063.035-.06l1.939 1.939a2.48 2.48 0 0 0 .745-1.782H9.84zm.058-.157c.006-.006.03-.026.069-.043s.063-.015.056-.015v2.743c.685 0 1.319-.251 1.813-.745l-1.939-1.939zm.126-.058c.016 0 .053.004.097.022.043.018.063.038.06.036l-1.94 1.939a2.48 2.48 0 0 0 1.782.745v-2.743zm.157.058c-.002-.002.017.017.035.06s.022.081.022.097H7.496c0 .691.27 1.307.745 1.782l1.94-1.939zm.058.157V8.788H7.497v15.781h2.743zm0-15.781c0 .016-.004.053-.022.097s-.038.063-.035.06l-1.94-1.939a2.48 2.48 0 0 0-.745 1.782h2.743zm-.017.114c.008-.009-.01.014-.061.037a.334.334 0 0 1-.137.032V6.228c-.732 0-1.359.313-1.823.82l2.022 1.853zm-.198.069c-.016 0-.053-.004-.097-.022s-.063-.038-.06-.035l1.94-1.94a2.48 2.48 0 0 0-1.782-.745v2.743zm-.114-.016s-.024-.023-.045-.071-.024-.087-.024-.096h2.743c0-.725-.292-1.371-.82-1.855L9.912 8.955zm-.07-.167V15.6h2.743V8.788H9.841zm1.371 8.183h9.719v-2.743h-9.719v2.743zM22.303 15.6V8.788H19.56V15.6h2.743zm0-6.812c0 .016-.004.053-.022.097s-.038.063-.035.06l-1.94-1.939a2.48 2.48 0 0 0-.745 1.782h2.743zm-.017.114c.008-.009-.01.014-.061.037a.334.334 0 0 1-.137.032V6.228c-.732 0-1.359.313-1.823.82l2.022 1.853z"/></symbol>
</defs></svg>