<svg xmlns="http://www.w3.org/2000/svg" aria-hidden="true" style="position:absolute;width:0;height:0;overflow:hidden">
<defs><symbol id="icon-e" viewBox="0 0 32 32"><path d="M21.678 22.041c.292 0 .542.115.75.344.229.208.344.469.344.781a.979.979 0 0 1-.344.75 1.024 1.024 0 0 1-.75.313H11.397c-.313 0-.583-.115-.813-.344s-.344-.5-.344-.812V7.542c0-.313.115-.583.344-.812.229-.25.5-.375.813-.375h10.281c.292 0 .542.115.75.344.229.208.344.458.344.75s-.115.552-.344.781a1.024 1.024 0 0 1-.75.313h-9.094v5.656h8.156c.292 0 .542.104.75.313.229.208.344.469.344.781 0 .292-.104.552-.313.781a1.061 1.061 0 0 1-.781.313h-8.156v5.656h9.094z"/><path d="m22.428 22.385-1.015.922.044.048.048.044.922-1.015zm0 1.531-.922-1.015-.024.022-.023.023.97.97zM10.584 6.729l.97.97.021-.021.02-.022-1.011-.927zm11.844-.032-1.015.923.044.048.048.044.922-1.015zm0 1.532zm-9.844.312V7.17h-1.371v1.371h1.371zm0 5.656h-1.371v1.371h1.371v-1.371zm8.906.313-.97.97.023.023.024.022.923-1.015zm.031 1.562.97.97.023-.023.022-.024-1.015-.922zm-8.937.313v-1.371h-1.371v1.371h1.371zm0 5.656h-1.371v1.371h1.371v-1.371zm9.094 1.371a.409.409 0 0 1-.165-.039c-.063-.029-.095-.061-.1-.066l2.03-1.845a2.35 2.35 0 0 0-1.765-.793v2.743zm-.173-.012c-.015-.013-.048-.05-.075-.111s-.03-.108-.03-.123h2.743c0-.695-.275-1.325-.793-1.796l-1.845 2.03zm-.105-.234c0-.039.009-.1.039-.165.029-.063.061-.095.066-.1l1.845 2.03a2.35 2.35 0 0 0 .793-1.765H21.4zm.058-.22c.011-.011.044-.039.099-.062s.1-.027.121-.027V25.6c.66 0 1.257-.252 1.72-.714l-1.94-1.939zm.22-.089H11.397V25.6h10.281v-2.743zm-10.282 0c.016 0 .053.004.097.022.043.018.063.038.06.035l-1.94 1.94a2.48 2.48 0 0 0 1.782.745v-2.743zm.158.058c-.002-.002.017.017.035.06s.022.081.022.097H8.868c0 .691.27 1.307.745 1.782l1.94-1.94zm.058.157V7.541H8.869v15.531h2.743zm0-15.531a.276.276 0 0 1-.022.097c-.018.043-.038.063-.035.06l-1.94-1.94A2.48 2.48 0 0 0 8.87 7.54h2.743zm-.017.114c.008-.009-.01.014-.061.037a.334.334 0 0 1-.137.032V4.981c-.732 0-1.359.313-1.823.82l2.022 1.853zm-.199.07h10.281V4.982H11.396v2.743zm10.282 0a.409.409 0 0 1-.165-.039c-.063-.029-.095-.061-.1-.066l2.03-1.845a2.35 2.35 0 0 0-1.765-.793v2.743zm-.173-.013c-.005-.005-.037-.037-.066-.1a.409.409 0 0 1-.039-.165h2.743c0-.704-.297-1.315-.793-1.765l-1.845 2.03zm-.105-.265c0-.039.009-.09.03-.138.02-.046.039-.061.028-.05l1.94 1.939c.455-.455.745-1.054.745-1.751H21.4zm.058-.188c.011-.011.044-.039.099-.062s.1-.027.121-.027v2.743c.66 0 1.257-.252 1.72-.714l-1.94-1.939zm.22-.089h-9.094v2.743h9.094V7.17zM11.212 8.541v5.656h2.743V8.541h-2.743zm1.372 7.028h8.156v-2.743h-8.156v2.743zm8.156 0a.344.344 0 0 1-.22-.089l1.94-1.94a2.392 2.392 0 0 0-1.72-.714v2.743zm-.172-.044c-.015-.013-.048-.05-.075-.111s-.03-.108-.03-.123h2.743c0-.695-.275-1.325-.793-1.796l-1.845 2.03zm-.106-.234c0-.022.005-.057.02-.095.015-.037.03-.052.024-.046l2.03 1.845a2.503 2.503 0 0 0 .669-1.704h-2.743zm.09-.188a.33.33 0 0 1 .109-.069c.049-.02.081-.02.08-.02v2.743a2.43 2.43 0 0 0 1.751-.714l-1.939-1.939zm.188-.09h-8.156v2.743h8.156v-2.743zm-9.528 1.372v5.656h2.743v-5.656h-2.743zm1.372 7.027h9.094v-2.743h-9.094v2.743z"/></symbol><symbol id="icon-p" viewBox="0 0 32 32"><path d="M16.783 7.268c2.375 0 4.156.615 5.344 1.844.979.979 1.479 2.26 1.5 3.844 0 1.563-.5 2.844-1.5 3.844-1.208 1.229-2.99 1.844-5.344 1.844h-4.656v5.469c0 .313-.115.583-.344.813s-.51.344-.844.344c-.313 0-.583-.115-.813-.344s-.344-.5-.344-.813V8.457c0-.313.115-.583.344-.812.229-.25.5-.375.813-.375h5.844zm-.219 9.187c1.75 0 3.021-.375 3.812-1.125.625-.583.927-1.375.906-2.375 0-1.583-.792-2.635-2.375-3.156-.625-.208-1.406-.323-2.344-.344h-4.438v7h4.438z"/><path d="m22.127 9.112-.986.953.008.008.008.008.97-.97zm1.5 3.843h1.371v-.018l-1.371.018zm-1.5 3.844-.97-.97-.008.008.978.961zm-10 1.844v-1.371h-1.371v1.371h1.371zm-2-11 .97.97.021-.021.02-.022-1.011-.927zm10.25 7.687-.936-1.003-.004.003-.004.004.943.996zm.906-2.375h-1.371v.028l1.371-.029zm-2.375-3.156-.434 1.301.005.002.429-1.303zm-2.344-.344.03-1.371h-.03v1.371zm-4.437 0V8.084h-1.371v1.371h1.371zm0 7h-1.371v1.371h1.371v-1.371zm4.656-7.816c2.151 0 3.516.554 4.357 1.425l1.973-1.906c-1.533-1.587-3.731-2.262-6.33-2.262v2.743zm4.374 1.442c.69.69 1.082 1.611 1.098 2.892l2.743-.036c-.025-1.885-.633-3.527-1.902-4.795l-1.94 1.94zm1.098 2.874c0 1.241-.384 2.159-1.098 2.874l1.94 1.94c1.285-1.285 1.902-2.929 1.902-4.814h-2.743zm-1.106 2.883c-.868.882-2.241 1.434-4.366 1.434v2.743c2.584 0 4.773-.678 6.322-2.254l-1.956-1.923zm-4.366 1.433h-4.656v2.743h4.656v-2.743zm-6.028 1.372v5.469h2.743v-5.469h-2.743zm0 5.469c0-.016.004-.053.023-.097s.038-.063.035-.06l1.939 1.939a2.48 2.48 0 0 0 .745-1.782h-2.743zm.058-.158c.006-.006.03-.026.069-.043s.063-.015.056-.015v2.743c.685 0 1.319-.251 1.813-.745l-1.939-1.939zm.126-.058c.016 0 .053.004.097.022.043.018.063.038.06.036l-1.94 1.939a2.48 2.48 0 0 0 1.782.745v-2.743zm.158.058c-.002-.002.017.017.035.06s.022.081.022.097H8.411c0 .691.27 1.307.745 1.782l1.94-1.939zm.057.158V8.456H8.411v15.656h2.743zm0-15.657a.276.276 0 0 1-.022.097c-.018.043-.038.063-.035.06l-1.94-1.94a2.48 2.48 0 0 0-.745 1.782h2.743zm-.016.115c.008-.009-.01.014-.061.037a.334.334 0 0 1-.137.032V5.896c-.732 0-1.359.313-1.823.82l2.022 1.853zm-.199.069h5.844V5.896h-5.844v2.743zm5.625 9.188c1.899 0 3.593-.399 4.756-1.501l-1.886-1.991c-.421.398-1.268.749-2.869.749v2.743zm4.749-1.494c.959-.895 1.369-2.089 1.342-3.406l-2.742.057c.014.683-.18 1.073-.471 1.344l1.872 2.005zm1.341-3.378c0-1.027-.261-1.992-.869-2.801-.604-.803-1.462-1.333-2.449-1.658l-.857 2.605c.597.196.926.452 1.114.702.183.243.318.596.318 1.152h2.743zm-3.312-4.457c-.797-.266-1.725-.391-2.747-.414l-.061 2.742c.853.019 1.488.123 1.941.274l.867-2.602zm-2.778-.414h-4.438v2.743h4.438V8.084zm-5.809 1.371v7h2.743v-7h-2.743zm1.372 8.372h4.438v-2.743h-4.438v2.743z"/></symbol><symbol id="icon-a" viewBox="0 0 32 32"><path d="M24.377 23.154c.083.208.125.427.125.656 0 .208-.104.427-.313.656-.188.229-.51.344-.969.344-.438 0-.76-.24-.969-.719l-1.656-3.969h-8.719l-1.625 3.969c-.208.479-.542.719-1 .719-.438 0-.76-.115-.969-.344-.187-.229-.281-.448-.281-.656 0-.229.042-.448.125-.656l6.5-15.406c.292-.708.792-1.063 1.5-1.063h.25c.688 0 1.188.354 1.5 1.063l6.5 15.406zm-4.656-5.156-3.469-8.344-3.469 8.344h6.938z"/><path d="m24.377 23.154 1.273-.509-.005-.012-.005-.012-1.264.533zm-.188 1.313-1.015-.922-.024.026-.023.028 1.061.868zm-1.937-.375-1.266.528.004.009.004.009 1.258-.547zm-1.656-3.969 1.266-.528-.352-.843h-.914v1.371zm-8.719 0v-1.371h-.92l-.349.852 1.269.52zm-1.625 3.969 1.258.547.006-.014.006-.014-1.269-.52zm-1.969.375-1.061.868.023.028.024.026 1.015-.922zm-.156-1.313-1.264-.533-.005.012-.005.012 1.273.509zm6.5-15.406 1.264.533.002-.005.002-.005-1.268-.522zm3.25 0 1.264-.533-.004-.01-.005-.01-1.255.554zm1.844 10.25v1.371h2.055l-.789-1.898-1.266.526zm-3.469-8.344 1.266-.526-1.266-3.046-1.266 3.046 1.266.526zm-3.469 8.344-1.266-.526-.789 1.898h2.055v-1.371zm10.32 5.666a.382.382 0 0 1 .027.147h2.743c0-.4-.074-.792-.223-1.166l-2.547 1.019zm.027.147a.64.64 0 0 1 .055-.269c.019-.04.027-.038-.011.003l2.03 1.845c.329-.361.669-.896.669-1.579H23.13zm-.002-.212a.613.613 0 0 1 .129-.119.455.455 0 0 1 .091-.048c.026-.009-.005.007-.127.007v2.743c.643 0 1.466-.157 2.03-.847l-2.123-1.737zm.093-.16a.47.47 0 0 1 .246.09c.081.06.078.099.042.015l-2.515 1.094c.172.395.435.794.839 1.094a2.3 2.3 0 0 0 1.387.45v-2.743zm.296.125-1.656-3.969-2.531 1.056 1.656 3.969 2.531-1.056zm-2.921-4.812h-8.719v2.743h8.719v-2.743zm-9.988.852-1.625 3.969 2.538 1.039 1.625-3.969-2.538-1.039zm-1.614 3.941c-.032.074-.031.031.051-.028a.426.426 0 0 1 .207-.078v2.743a2.36 2.36 0 0 0 1.394-.438c.415-.298.687-.7.864-1.106l-2.515-1.094zm.258-.106c-.104 0-.132-.014-.112-.007a.465.465 0 0 1 .158.112l-2.03 1.845c.561.617 1.323.793 1.984.793v-2.743zm.092.16c-.031-.038-.026-.041-.012-.008a.566.566 0 0 1 .041.22H6.63c0 .635.286 1.152.591 1.525l2.123-1.737zm.029.212c0-.058.01-.104.027-.147l-2.547-1.019c-.15.374-.223.766-.223 1.166h2.743zm.017-.123 6.5-15.406-2.527-1.066-6.5 15.406 2.527 1.066zM15.895 8.27a.824.824 0 0 1 .089-.168c.01-.014.018-.022.023-.027l.005-.004.002-.001.002-.001.006-.002a.403.403 0 0 1 .106-.011V5.313c-.592 0-1.182.152-1.699.518-.509.361-.849.86-1.069 1.394l2.536 1.044zm.232-.213h.25V5.314h-.25v2.743zm.25 0c.054 0 .08.007.088.009.007.002.008.003.009.004s.065.045.147.231l2.509-1.107c-.23-.522-.572-1.009-1.071-1.362a2.871 2.871 0 0 0-1.683-.518v2.743zm.236.224 6.5 15.406 2.527-1.066-6.5-15.406-2.527 1.066zm4.374 9.191-3.469-8.344-2.533 1.053 3.469 8.344 2.533-1.053zm-6.002-8.344-3.469 8.344 2.533 1.053 3.469-8.344-2.533-1.053zM12.783 19.37h6.938v-2.743h-6.938v2.743z"/></symbol><symbol id="icon-g" viewBox="0 0 32 32"><path d="M17.087 23.205a9.363 9.363 0 0 0 4.5-1.125v-4.625h-4.25a1.02 1.02 0 0 1-.75-.313c-.188-.208-.281-.458-.281-.75s.104-.542.313-.75a.99.99 0 0 1 .719-.313h5.063c.333 0 .615.125.844.375.25.229.375.521.375.875v5.781c0 .375-.094.708-.281 1a1.469 1.469 0 0 1-.688.594c-1.917.958-3.865 1.438-5.844 1.438-2.688 0-4.854-.854-6.5-2.563s-2.479-3.906-2.5-6.594c0-2.708.865-4.948 2.594-6.719 1.646-1.667 3.75-2.5 6.313-2.5 1.458 0 2.688.177 3.688.531s1.896.792 2.688 1.312c.333.187.5.458.5.812s-.094.635-.281.844c-.167.208-.385.313-.656.313s-.49-.042-.656-.125c-1.646-.958-3.323-1.438-5.031-1.438-1.979 0-3.604.604-4.875 1.813-1.313 1.271-1.958 2.99-1.938 5.156 0 2.021.604 3.677 1.813 4.969 1.271 1.333 2.979 2 5.125 2z"/><path d="m21.588 22.08.649 1.208.722-.388v-.82h-1.371zm0-4.625h1.371v-1.371h-1.371v1.371zm-5-.312-1.019.917.024.027.025.026.97-.97zm6.656-1.438-1.011.927.04.044.044.04.927-1.011zm.093 7.657-1.154-.742-.007.011-.007.011 1.168.719zm-.687.593-.54-1.261-.037.016-.036.018.613 1.227zM7.806 16.237H6.435v.01l1.371-.011zM10.4 9.518l-.976-.964-.005.005.981.958zm12.687-.656-.754 1.146.04.026.042.023.672-1.195zm.219 1.656-1.019-.917-.027.03-.025.031 1.071.857zm-1.312.187-.69 1.185.038.022.039.02.613-1.227zm-9.906.375-.945-.994-.009.009.954.985zm-1.938 5.157h1.371v-.014l-1.371.013zm1.813 4.968-1.002.937.004.005.004.005.993-.946zm5.124 3.372c1.828 0 3.551-.43 5.149-1.288l-1.298-2.416a7.996 7.996 0 0 1-3.851.962v2.743zm5.872-2.497v-4.625h-2.743v4.625h2.743zm-1.371-5.996h-4.25v2.743h4.25v-2.743zm-4.251 0a.344.344 0 0 1 .22.089l-1.94 1.939c.463.463 1.06.714 1.72.714v-2.743zm.27.141a.303.303 0 0 1 .071.167h-2.743c0 .615.209 1.196.633 1.667l2.039-1.835zm.071.168a.344.344 0 0 1-.089.22l-1.939-1.94a2.392 2.392 0 0 0-.714 1.72h2.743zm-.09.22a.417.417 0 0 1-.251.09V13.96c-.668 0-1.248.274-1.688.714l1.939 1.94zm-.251.089H22.4v-2.743h-5.063v2.743zm5.063 0c-.009 0-.047-.003-.096-.024s-.072-.046-.071-.045l2.022-1.853a2.47 2.47 0 0 0-1.855-.82v2.743zm-.083.014a.271.271 0 0 1-.053-.08c-.019-.044-.017-.069-.017-.056h2.743c0-.719-.272-1.384-.82-1.886l-1.853 2.022zm-.07-.136v5.781h2.743V16.58h-2.743zm0 5.782c0 .134-.03.206-.063.258l2.307 1.483a3.182 3.182 0 0 0 .499-1.742h-2.743zm-.078.281c-.013.022-.022.03-.025.032s-.012.01-.034.02l1.08 2.521a2.836 2.836 0 0 0 1.315-1.136l-2.336-1.438zm-.132.086c-1.742.871-3.481 1.293-5.23 1.293v2.743c2.209 0 4.366-.537 6.457-1.582l-1.227-2.453zm-5.231 1.292c-2.369 0-4.16-.739-5.512-2.143l-1.975 1.903c1.94 2.013 4.482 2.982 7.488 2.982V24.02zm-5.512-2.142c-1.369-1.421-2.098-3.266-2.116-5.653l-2.743.021c.023 2.988.961 5.539 2.884 7.535l1.975-1.903zm-2.116-5.642c0-2.387.749-4.271 2.204-5.761L9.42 8.56c-2.004 2.052-2.984 4.647-2.984 7.677h2.743zm2.198-5.756c1.363-1.38 3.103-2.092 5.337-2.092V5.646c-2.891 0-5.359.954-7.288 2.908l1.952 1.927zm5.336-2.092c1.357 0 2.42.166 3.23.453l.916-2.585c-1.191-.422-2.585-.61-4.145-.61V8.39zm3.23.453c.908.322 1.703.712 2.392 1.165l1.508-2.291a13.785 13.785 0 0 0-2.983-1.46l-.916 2.585zm2.473 1.215c.005.003-.059-.033-.121-.133a.507.507 0 0 1-.078-.25h2.743c0-.896-.476-1.601-1.199-2.008l-1.345 2.391zm-.199-.383c0 .057-.008.066 0 .043a.35.35 0 0 1 .071-.116l2.039 1.835c.469-.521.633-1.161.633-1.761h-2.743zm.019-.013c.033-.041.096-.101.192-.147s.178-.055.222-.055v2.743a2.17 2.17 0 0 0 1.727-.827l-2.142-1.713zm.415-.202c-.033 0-.058-.001-.077-.003l-.034-.004c-.009-.002.019.002.068.027l-1.227 2.453c.424.212.875.27 1.27.27V9.459zm.034.061c-1.831-1.066-3.744-1.624-5.721-1.624v2.743c1.439 0 2.88.401 4.341 1.251l1.38-2.37zm-5.722-1.624c-2.282 0-4.261.708-5.82 2.19l1.89 1.988c.982-.934 2.254-1.435 3.93-1.435V7.896zm-5.828 2.199c-1.633 1.581-2.379 3.688-2.355 6.155l2.743-.026c-.018-1.866.528-3.197 1.52-4.158l-1.908-1.97zm-2.355 6.142c0 2.315.702 4.323 2.182 5.906l2.003-1.874c-.937-1.001-1.443-2.306-1.443-4.032H8.778zm2.191 5.915c1.573 1.65 3.664 2.425 6.118 2.425v-2.743c-1.838 0-3.163-.558-4.132-1.575l-1.985 1.892z"/></symbol><symbol id="icon-m" viewBox="0 0 32 32"><path d="M23.762 6.229c.479 0 .875.167 1.187.5.333.333.5.729.5 1.187v15.281c0 .313-.115.583-.344.813s-.5.344-.812.344c-.313 0-.583-.115-.813-.344s-.344-.5-.344-.813V8.666l-5.938 14.625a1.738 1.738 0 0 1-.625.781c-.292.188-.625.281-1 .281s-.708-.094-1-.281a1.73 1.73 0 0 1-.656-.781L8.011 8.666v14.531c0 .313-.115.583-.344.813s-.51.344-.844.344c-.313 0-.583-.115-.813-.344s-.344-.5-.344-.813V7.916c0-.458.156-.854.469-1.187.333-.333.74-.5 1.219-.5h.844c.333 0 .635.104.906.313.292.208.51.458.656.75l5.812 14.5 5.813-14.5c.125-.292.323-.542.594-.75.292-.208.615-.313.969-.313h.813z"/><path d="m24.95 6.729-1 .938.015.016.016.016.97-.97zm-1.813 1.937h1.371l-2.642-.516 1.271.516zM17.2 23.291l-1.271-.516-.001.003-.001.003 1.273.509zm-.625.781.742 1.154.028-.018.027-.02-.797-1.116zm-2.656-.781-1.272.514.007.018.008.018 1.256-.55zM8.012 8.666l1.272-.514-2.643.514h1.371zM6.138 6.729l-.97-.97-.016.016-.015.016 1 .938zm2.968-.188L8.27 7.628l.019.015.02.014.797-1.116zm.656.75 1.273-.51-.021-.052-.025-.051-1.227.613zm5.813 14.5-1.273.51 1.273 3.176 1.273-3.176-1.273-.51zm5.813-14.5-1.261-.54-.006.015-.006.015 1.273.51zm.593-.75-.797-1.116-.02.014-.019.015.836 1.087zM23.762 7.6c.078 0 .113.013.124.018.01.004.03.014.063.049l2.001-1.876c-.586-.625-1.351-.933-2.188-.933v2.743zm.218.098c.084.084.098.135.098.218h2.743a2.99 2.99 0 0 0-.902-2.157l-1.939 1.94zm.099.218v15.281h2.743V7.916h-2.743zm0 15.281c0-.016.004-.053.022-.097s.038-.063.035-.06l1.939 1.939a2.48 2.48 0 0 0 .745-1.782h-2.743zm.058-.157c-.002.002.017-.017.06-.036s.081-.022.097-.022v2.743c.691 0 1.306-.27 1.782-.745l-1.939-1.939zm.157-.058c.016 0 .053.004.097.022.043.018.063.038.06.036l-1.94 1.939a2.48 2.48 0 0 0 1.782.745v-2.743zm.157.058c-.002-.002.017.017.035.06s.022.081.022.097h-2.743c0 .691.27 1.307.745 1.782l1.94-1.939zm.058.157V8.666h-2.743v14.531h2.743zM21.867 8.15l-5.938 14.625 2.541 1.032 5.937-14.625-2.541-1.032zm-5.94 14.632a.38.38 0 0 1-.149.175l1.594 2.232c.491-.35.872-.816 1.101-1.388l-2.547-1.019zm-.094.137a.44.44 0 0 1-.258.063v2.743c.616 0 1.211-.158 1.742-.499l-1.483-2.307zm-.258.063a.448.448 0 0 1-.258-.063l-1.483 2.307a3.182 3.182 0 0 0 1.742.499v-2.743zm-.258-.063a.36.36 0 0 1-.141-.177l-2.513 1.099c.249.568.64 1.044 1.171 1.385l1.483-2.307zm-.127-.142L9.284 8.152 6.741 9.179l5.906 14.625 2.543-1.027zM6.641 8.666v14.531h2.743V8.666H6.641zm0 14.531c0-.016.004-.053.022-.097s.038-.063.035-.06l1.939 1.939a2.48 2.48 0 0 0 .745-1.782H6.639zm.058-.157c.006-.006.03-.026.069-.043s.063-.015.056-.015v2.743c.685 0 1.319-.251 1.814-.745l-1.939-1.939zm.126-.058c.016 0 .053.004.097.022.043.018.063.038.06.036l-1.94 1.939a2.48 2.48 0 0 0 1.782.745v-2.743zm.157.058c-.002-.002.017.017.035.06s.022.081.022.097H4.296c0 .691.27 1.307.745 1.782l1.94-1.939zm.058.157V7.916H4.297v15.281H7.04zm0-15.281c0-.111.024-.171.098-.25L5.137 5.79a3.046 3.046 0 0 0-.84 2.126H7.04zm.067-.218c.071-.071.127-.098.249-.098V4.857c-.836 0-1.593.306-2.188.902l1.939 1.94zm.249-.098H8.2V4.857h-.844V7.6zm.844 0c.021 0 .028.003.03.003s.015.005.041.025l1.672-2.174a2.82 2.82 0 0 0-1.742-.597V7.6zm.109.057a.675.675 0 0 1 .227.247l2.453-1.227a3.417 3.417 0 0 0-1.086-1.253L8.309 7.656zm.181.144 5.812 14.5 2.546-1.021-5.812-14.5L8.49 7.801zm8.358 14.5 5.813-14.5-2.546-1.021-5.813 14.5 2.546 1.021zm5.8-14.47a.502.502 0 0 1 .169-.203l-1.672-2.174c-.442.34-.794.773-1.018 1.297l2.521 1.08zm.13-.174a.264.264 0 0 1 .172-.057V4.857c-.644 0-1.245.196-1.766.568l1.594 2.232zm.172-.057h.813V4.857h-.813V7.6z"/></symbol><symbol id="icon-o" viewBox="0 0 32 32"><path d="M9.392 9.123c1.625-1.708 3.792-2.562 6.5-2.562s4.875.854 6.5 2.562c1.583 1.688 2.406 3.896 2.469 6.625-.063 2.708-.885 4.917-2.469 6.625-1.625 1.708-3.792 2.563-6.5 2.563s-4.875-.854-6.5-2.563c-1.625-1.708-2.458-3.917-2.5-6.625.042-2.708.875-4.917 2.5-6.625zm6.5 13.625c2.083 0 3.719-.667 4.906-2 1.167-1.292 1.75-2.958 1.75-5s-.583-3.708-1.75-5c-1.208-1.354-2.844-2.021-4.906-2-2.083 0-3.729.667-4.938 2-1.167 1.292-1.74 2.958-1.719 5 0 2.042.573 3.708 1.719 5 1.208 1.333 2.854 2 4.938 2z"/><path d="M9.392 9.123zm13 0 1-.938-.003-.003-.003-.003-.994.945zm2.469 6.625 1.371.032.001-.031-.001-.032-1.371.031zm-2.469 6.625.994.945.006-.006.006-.007-1.006-.932zm-15.5-6.625-1.371-.021v.042l1.371-.021zm13.906 5-1.018-.919-.003.004-.003.004 1.024.912zm0-10-1.023.913.006.006 1.018-.919zm-4.906-2v1.371h.014l-.014-1.371zm-4.938 2-1.016-.921-.002.002 1.018.919zm-1.718 5h1.371v-.014l-1.371.014zm1.718 5-1.026.91.005.005.005.005 1.016-.921zm-.568-10.68c1.327-1.395 3.113-2.136 5.506-2.136V5.189c-3.023 0-5.57.967-7.494 2.989l1.987 1.89zm5.506-2.136c2.394 0 4.179.741 5.506 2.136l1.987-1.89c-1.923-2.022-4.471-2.989-7.494-2.989v2.743zm5.5 2.13c1.312 1.398 2.042 3.262 2.098 5.718l2.742-.063c-.069-3.003-.985-5.555-2.84-7.532l-2 1.877zm2.098 5.655c-.056 2.432-.784 4.301-2.104 5.724l2.012 1.864c1.847-1.993 2.765-4.54 2.834-7.526l-2.742-.063zm-2.092 5.711c-1.327 1.395-3.113 2.136-5.506 2.136v2.743c3.023 0 5.57-.967 7.494-2.989l-1.987-1.89zm-5.506 2.136c-2.394 0-4.179-.741-5.506-2.136l-1.987 1.89c1.923 2.022 4.471 2.989 7.494 2.989v-2.743zm-5.506-2.136c-1.352-1.422-2.085-3.282-2.122-5.701l-2.743.042c.046 2.998.98 5.554 2.878 7.549l1.987-1.89zm-2.123-5.659c.037-2.419.77-4.279 2.122-5.701l-1.987-1.89C6.5 10.173 5.567 12.729 5.52 15.727l2.743.042zm7.629 8.351c2.403 0 4.438-.784 5.93-2.459l-2.048-1.824c-.883.991-2.118 1.541-3.882 1.541v2.743zm5.924-2.453c1.433-1.586 2.104-3.6 2.104-5.919h-2.743c0 1.764-.496 3.084-1.396 4.081l2.035 1.838zm2.104-5.919c0-2.319-.671-4.333-2.104-5.919l-2.035 1.838c.9.997 1.396 2.316 1.396 4.081h2.743zm-2.098-5.913c-1.509-1.691-3.545-2.482-5.943-2.458l.028 2.743c1.727-.017 2.962.525 3.869 1.542l2.047-1.826zm-5.93-2.458c-2.403 0-4.443.784-5.954 2.45l2.032 1.842c.906-1 2.158-1.55 3.921-1.55V7.376zM9.937 9.829C8.5 11.42 7.841 13.44 7.865 15.762l2.743-.028c-.018-1.761.469-3.074 1.365-4.067L9.938 9.829zm-2.073 5.919c0 2.312.656 4.323 2.064 5.91l2.052-1.82c-.884-.996-1.373-2.319-1.373-4.09H7.864zm2.074 5.921c1.51 1.666 3.55 2.45 5.954 2.45v-2.743c-1.763 0-3.015-.549-3.921-1.55l-2.032 1.842z"/></symbol><symbol id="icon-h" viewBox="0 0 32 32"><path d="M22.087 7.6c.313 0 .583.115.813.344s.344.51.344.844v15.781c0 .313-.115.583-.344.813s-.5.344-.813.344-.583-.115-.812-.344a1.112 1.112 0 0 1-.344-.813v-6.781h-9.719v6.781c0 .313-.115.583-.344.813s-.51.344-.844.344c-.313 0-.583-.115-.813-.344s-.344-.5-.344-.813V8.788c0-.313.115-.583.344-.813.229-.25.5-.375.813-.375s.583.115.812.344c.25.229.375.51.375.844V15.6h9.719V8.788c0-.313.115-.583.344-.813.229-.25.5-.375.812-.375z"/><path d="M20.931 17.788h1.371v-1.371h-1.371v1.371zm-9.719 0v-1.371H9.841v1.371h1.371zm-2-9.813.97.97.021-.021.02-.022-1.011-.927zm1.626-.031-.97.97.021.021.022.02.927-1.011zm.374 7.656H9.841v1.371h1.371V15.6zm9.719 0v1.371h1.371V15.6h-1.371zm.344-7.625.97.97.021-.021.02-.022-1.011-.927zm.812.996c-.016 0-.053-.004-.097-.022s-.063-.038-.06-.035l1.94-1.94a2.48 2.48 0 0 0-1.782-.745v2.743zm-.157-.057c-.006-.006-.026-.03-.043-.07s-.015-.063-.015-.056h2.743c0-.685-.251-1.319-.745-1.814l-1.94 1.94zm-.058-.126v15.781h2.743V8.788h-2.743zm0 15.781c0-.016.004-.053.022-.097s.038-.063.035-.06l1.94 1.939a2.48 2.48 0 0 0 .745-1.782h-2.743zm.058-.157c-.002.002.017-.017.06-.036s.081-.022.097-.022v2.743c.691 0 1.307-.27 1.782-.745l-1.94-1.939zm.157-.058c.016 0 .053.004.097.022s.063.038.06.036l-1.94 1.939a2.48 2.48 0 0 0 1.782.745v-2.743zm.158.058c-.002-.002.017.017.035.06s.022.081.022.097h-2.743c0 .691.27 1.307.745 1.782l1.94-1.939zm.058.157v-6.781H19.56v6.781h2.743zm-1.372-8.153h-9.719v2.743h9.719v-2.743zm-11.09 1.372v6.781h2.743v-6.781H9.841zm0 6.781c0-.016.004-.053.023-.097s.038-.063.035-.06l1.939 1.939a2.48 2.48 0 0 0 .745-1.782H9.84zm.058-.157c.006-.006.03-.026.069-.043s.063-.015.056-.015v2.743c.685 0 1.319-.251 1.813-.745l-1.939-1.939zm.126-.058c.016 0 .053.004.097.022.043.018.063.038.06.036l-1.94 1.939a2.48 2.48 0 0 0 1.782.745v-2.743zm.157.058c-.002-.002.017.017.035.06s.022.081.022.097H7.496c0 .691.27 1.307.745 1.782l1.94-1.939zm.058.157V8.788H7.497v15.781h2.743zm0-15.781c0 .016-.004.053-.022.097s-.038.063-.035.06l-1.94-1.939a2.48 2.48 0 0 0-.745 1.782h2.743zm-.017.114c.008-.009-.01.014-.061.037a.334.334 0 0 1-.137.032V6.228c-.732 0-1.359.313-1.823.82l2.022 1.853zm-.198.069c-.016 0-.053-.004-.097-.022s-.063-.038-.06-.035l1.94-1.94a2.48 2.48 0 0 0-1.782-.745v2.743zm-.114-.016s-.024-.023-.045-.071-.024-.087-.024-.096h2.743c0-.725-.292-1.371-.82-1.855L9.912 8.955zm-.07-.167V15.6h2.743V8.788H9.841zm1.371 8.183h9.719v-2.743h-9.719v2.743zM22.303 15.6V8.788H19.56V15.6h2.743zm0-6.812c0 .016-.004.053-.022.097s-.038.063-.035.06l-1.94-1.939a2.48 2.48 0 0 0-.745 1.782h2.743zm-.017.114c.008-.009-.01.014-.061.037a.334.334 0 0 1-.137.032V6.228c-.732 0-1.359.313-1.823.82l2.022 1.853z"/></symbol></defs></svg>